<?xml version="1.0" encoding="utf-8"?>
<!-- Generator: Adobe Illustrator 23.0.3, SVG Export Plug-In . SVG Version: 6.00 Build 0)  -->
<svg version="1.1" id="Layer_1" xmlns="http://www.w3.org/2000/svg" xmlns:xlink="http://www.w3.org/1999/xlink" x="0px" y="0px"
	 viewBox="0 0 1024 1366" style="enable-background:new 0 0 1024 1366;" xml:space="preserve">
<style type="text/css">
	.st0{fill:none;stroke:#000000;stroke-miterlimit:10;}
	.st1{clip-path:url(#SVGID_2_);}
	.st2{fill-opacity:0;stroke:#000000;stroke-miterlimit:10;stroke-opacity:0;}
	.st3{fill:#FFFFFF;stroke:#000000;stroke-miterlimit:10;}
	.st4{opacity:0.5;fill:url(#SVGID_3_);stroke:#000000;stroke-miterlimit:10;stroke-opacity:0;enable-background:new    ;}
	.st5{stroke:#000000;stroke-miterlimit:10;stroke-opacity:0;}
	.st6{fill:#FFFFFF;stroke:#000000;stroke-miterlimit:10;stroke-opacity:0;}
	.st7{fill:url(#SVGID_4_);stroke:#000000;stroke-width:0.3;stroke-miterlimit:10;}
	.st8{fill:#0D748C;stroke:#000000;stroke-width:0.5;stroke-miterlimit:10;}
	.st9{opacity:0.6;stroke:#000000;stroke-miterlimit:10;stroke-opacity:0;enable-background:new    ;}
	.st10{opacity:0.3;stroke:#000000;stroke-miterlimit:10;stroke-opacity:0;enable-background:new    ;}
	.st11{opacity:0.27;stroke:#000000;stroke-miterlimit:10;stroke-opacity:0;enable-background:new    ;}
	.st12{fill:url(#SVGID_5_);stroke:#000000;stroke-width:0.3;stroke-miterlimit:10;}
	.st13{fill:url(#SVGID_6_);stroke:#000000;stroke-width:0.3;stroke-miterlimit:10;}
	.st14{fill:url(#SVGID_7_);stroke:#000000;stroke-width:0.3;stroke-miterlimit:10;}
	.st15{fill:url(#SVGID_8_);stroke:#000000;stroke-width:0.3;stroke-miterlimit:10;}
	.st16{fill:url(#SVGID_9_);stroke:#000000;stroke-width:0.3;stroke-miterlimit:10;}
	.st17{fill:url(#SVGID_10_);stroke:#000000;stroke-width:0.3;stroke-miterlimit:10;}
</style>
<g transform="translate(0,0)">
	<g transform="translate(0.5,0.5) matrix(1,0,0,1,17,15)">
		<g>
			<g transform="translate(0,0) scale(0.15,3.06)">
				<g>
					<path d="M6710-5.1v4.6l0,0H-116.7l0,0v-4.6l0,0H6710L6710-5.1z"/>
					<g transform="scale(6.666666666666667,0.32679738562091504)">
						<path class="st0" d="M1006.5-15.4v14.1l0,0h-1024l0,0v-14.1l0,0H1006.5L1006.5-15.4z"/>
					</g>
				</g>
			</g>
		</g>
	</g>
	<g transform="translate(0.5,0.5) matrix(1,0,0,1,38,15)">
		<g>
			<g transform="translate(0,0) scale(0.15,3.06)">
				<g>
					<path d="M6570,10.5v4.7l0,0H-256.7l0,0v-4.7l0,0H6570L6570,10.5z"/>
					<g transform="scale(6.666666666666667,0.32679738562091504)">
						<path class="st0" d="M985.5,32.3v14.1l0,0h-1024l0,0V32.3l0,0H985.5L985.5,32.3z"/>
					</g>
				</g>
			</g>
		</g>
	</g>
	<g transform="translate(0.5,0.5) matrix(1,0,0,1,45,35)">
		<g>
			<g transform="translate(0,0) scale(5.47,0.15)">
				<g>
					<path d="M166.2,178.5V8412l0,0h-3.9l0,0V178.5l0,0H166.2L166.2,178.5z"/>
					<g transform="scale(0.18281535648994515,6.666666666666667)">
						<path class="st0" d="M909.1,26.8v1235l0,0H888l0,0V26.8l0,0L909.1,26.8L909.1,26.8z"/>
					</g>
				</g>
			</g>
		</g>
	</g>
	<g transform="translate(0.5,0.5) matrix(1,0,0,1,45,292)">
		<g>
			<g transform="translate(0,0) scale(5.47,0.15)">
				<g>
					<path d="M8.2-1535v8233.6l0,0H4.3l0,0V-1535l0,0L8.2-1535L8.2-1535z"/>
					<g transform="scale(0.18281535648994515,6.666666666666667)">
						<path class="st0" d="M44.8-230.2v1235l0,0H23.8l0,0v-1235l0,0L44.8-230.2L44.8-230.2z"/>
					</g>
				</g>
			</g>
		</g>
	</g>
	<g transform="translate(0.5,0.5) matrix(1,0,0,1,589,15)">
		<g>
			<g transform="translate(0,0) scale(0.16,1.01)">
				<g>
					<path d="M2715.6,1270v14.9l0,0H603.3l0,0V1270l0,0H2715.6L2715.6,1270z"/>
					<g transform="scale(6.25,0.9900990099009901)">
						<path class="st0" d="M434.5,1282.7v15.1l0,0h-338l0,0v-15.1l0,0H434.5L434.5,1282.7z"/>
					</g>
				</g>
			</g>
		</g>
	</g>
	<g transform="translate(0.5,0.5) matrix(1,0,0,1,589,166)">
		<g>
			<g transform="translate(0,0) scale(0.16,1.54)">
				<g>
					<path d="M-458.4,734.8v9.8l0,0h-3220.9l0,0v-9.8l0,0H-458.4L-458.4,734.8z"/>
					<g transform="scale(6.25,0.6493506493506493)">
						<path class="st0" d="M-73.4,1131.7v15.1l0,0h-515.3l0,0v-15.1l0,0H-73.4L-73.4,1131.7z"/>
					</g>
				</g>
			</g>
		</g>
	</g>
	<g transform="translate(0,0) matrix(1,0,0,1,48,230)">
		<g>
			<g>
				<g>
					<defs>
						<rect id="SVGID_1_" x="59.6" y="-162.1" width="195.1" height="286.1"/>
					</defs>
					<clipPath id="SVGID_2_">
						<use xlink:href="#SVGID_1_"  style="overflow:visible;"/>
					</clipPath>
					<g class="st1">
						<g transform="translate(0,0) scale(1.2608695652173916,1.268591426071741)">
							<g>
								<g>
									<path class="st2" d="M201.9-127.8V97.8l0,0H47.2l0,0v-225.5l0,0h154.7V-127.8z"/>
								</g>
								<g>
									<path class="st3" d="M194.2-122.1V92.4l0,0H53.4l0,0v-214.6l0,0H194.2L194.2-122.1z"/>
								</g>
							</g>
							<g>
								<g>
									<path class="st2" d="M202.8-127.8V97.8l0,0H48.2l0,0v-225.5l0,0h154.7V-127.8z"/>
								</g>
								<g>
									
										<linearGradient id="SVGID_3_" gradientUnits="userSpaceOnUse" x1="-87.9332" y1="561.0068" x2="90.3763" y2="382.6972" gradientTransform="matrix(-2.141288e-10 1.5801 -1.6192 -2.167595e-10 943.0645 35.6991)">
										<stop  offset="0" style="stop-color:#FFFFFF"/>
										<stop  offset="0.1742" style="stop-color:#000000"/>
										<stop  offset="0.3708" style="stop-color:#FFFFFF"/>
										<stop  offset="0.4663" style="stop-color:#ADADAD"/>
										<stop  offset="0.7472" style="stop-color:#585858"/>
										<stop  offset="0.8427" style="stop-color:#FFFFFF"/>
										<stop  offset="1" style="stop-color:#191919"/>
									</linearGradient>
									<path class="st4" d="M195.1,92.8v-215.6H54.6L54,92.8H195.1z"/>
								</g>
							</g>
						</g>
					</g>
				</g>
			</g>
		</g>
	</g>
	<g transform="translate(0,0) matrix(-1,1.2246467991473532e-16,-1.2246467991473532e-16,-1,586.6363636363636,66.07499999999995)">
		<g>
			<g transform="translate(0,0) scale(1.319485400693729,1.2940253814344786)">
				<g>
					<g>
						<path class="st5" d="M-207.5-944.5v13l0,0h-30.3l0,0v-13l0,0H-207.5L-207.5-944.5z"/>
					</g>
					<g>
						<path class="st5" d="M-207.5-733.4v13l0,0h-30.3l0,0v-13l0,0H-207.5L-207.5-733.4z"/>
					</g>
					<g>
						<path class="st6" d="M-229.6-923.3v181.7l0,0h-9.2l0,0v-181.7l0,0H-229.6L-229.6-923.3z"/>
					</g>
					<g>
						
							<linearGradient id="SVGID_4_" gradientUnits="userSpaceOnUse" x1="-20.6831" y1="-1280.1366" x2="-20.6831" y2="-1286.9926" gradientTransform="matrix(-2.345005e-10 1.7752 -1.6422 -2.255383e-10 -2345.6677 -795.7313)">
							<stop  offset="0" style="stop-color:#FFFFFF"/>
							<stop  offset="1" style="stop-color:#000000"/>
						</linearGradient>
						<path class="st7" d="M-236.7-928.2v191.6l0,0h-6.7l0,0v-191.6l0,0L-236.7-928.2L-236.7-928.2z"/>
					</g>
				</g>
				<g>
					<g>
						<path class="st8" d="M-210.7-943.4v221.2l0,0h-23.9l0,0v-221.2l0,0H-210.7L-210.7-943.4z"/>
					</g>
				</g>
				<g>
					<g>
						<path class="st9" d="M-210.7-943.4v220.9l0,0h-6l0,0v-220.9l0,0H-210.7L-210.7-943.4z"/>
					</g>
					<g>
						<path class="st10" d="M-228-943.3v220.9l0,0h-6l0,0v-220.9l0,0H-228L-228-943.3z"/>
					</g>
					<g>
						<path class="st5" d="M-235.1-741.8v6.2l0,0h-9.7l0,0v-6.2l0,0H-235.1L-235.1-741.8z"/>
					</g>
					<g>
						<path class="st5" d="M-235.1-929.2v6.2l0,0h-9.7l0,0v-6.2l0,0H-235.1L-235.1-929.2z"/>
					</g>
					<g transform="matrix(1,-0.0031,0.0031,1,-0.0189,0.0133)">
						<path class="st11" d="M-207.3-944.7l0,11.6l0,0l-25,0l0,0l0-11.6l0,0L-207.3-944.7L-207.3-944.7z"/>
					</g>
					<g>
						<path class="st11" d="M-210-733.4v11.6l0,0h-24.6l0,0v-11.6l0,0H-210L-210-733.4z"/>
					</g>
				</g>
			</g>
		</g>
	</g>
	<g transform="translate(0,0) matrix(-1,1.2246467991473532e-16,-1.2246467991473532e-16,-1,455.6363636363636,66.21250000000006)">
		<g>
			<g transform="translate(0,0) scale(1.3394776037345433,1.3136318266077283)">
				<g>
					<g>
						<path class="st2" d="M-296.8-701.9v231.5l0,0h-46l0,0v-231.5l0,0H-296.8L-296.8-701.9z"/>
					</g>
					<g>
						<path class="st5" d="M-301.1-698.4v13l0,0h-30.8l0,0v-13l0,0H-301.1L-301.1-698.4z"/>
					</g>
					<g>
						<path class="st5" d="M-301.1-486.7v13l0,0h-30.8l0,0v-13l0,0H-301.1L-301.1-486.7z"/>
					</g>
					<g>
						<path class="st6" d="M-323.7-677v182.2l0,0h-9.3l0,0V-677l0,0H-323.7L-323.7-677z"/>
					</g>
					<g>
						
							<linearGradient id="SVGID_5_" gradientUnits="userSpaceOnUse" x1="32.9386" y1="-1253.4633" x2="32.9386" y2="-1260.4385" gradientTransform="matrix(-2.416604e-10 1.8295 -1.6924 -2.324246e-10 -2459.0061 -646.3587)">
							<stop  offset="0" style="stop-color:#FFFFFF"/>
							<stop  offset="1" style="stop-color:#000000"/>
						</linearGradient>
						<path class="st12" d="M-330.8-682.1v192l0,0h-6.8l0,0v-192l0,0H-330.8L-330.8-682.1z"/>
					</g>
				</g>
				<g>
					<g>
						<path class="st2" d="M-296.8-701.9v231.4l0,0h-46l0,0v-231.4l0,0H-296.8L-296.8-701.9z"/>
					</g>
					<g>
						<path class="st8" d="M-304.4-697.2v221.7l0,0h-24.3l0,0v-221.7l0,0H-304.4L-304.4-697.2z"/>
					</g>
				</g>
				<g>
					<g>
						<path class="st2" d="M-296.9-700v227.5l0,0h-44.8l0,0V-700l0,0H-296.9L-296.9-700z"/>
					</g>
					<g>
						<path class="st9" d="M-304.4-697.2v221.4l0,0h-6l0,0v-221.4l0,0H-304.4L-304.4-697.2z"/>
					</g>
					<g>
						<path class="st10" d="M-322-697.2v221.4l0,0h-6l0,0v-221.4l0,0H-322L-322-697.2z"/>
					</g>
					<g>
						<path class="st5" d="M-329.2-495.1v6.2l0,0h-9.9l0,0v-6.2l0,0H-329.2L-329.2-495.1z"/>
					</g>
					<g>
						<path class="st5" d="M-329.2-682.9v6.2l0,0h-9.9l0,0v-6.2l0,0H-329.2L-329.2-682.9z"/>
					</g>
					<g transform="matrix(1,-0.0031,0.0031,1,-0.0189,0.0133)">
						<path class="st11" d="M-301.8-698.8l0,11.6l0,0l-25.5,0l0,0l0-11.6l0,0L-301.8-698.8L-301.8-698.8z"/>
					</g>
					<g>
						<path class="st11" d="M-303.7-486.7v11.6l0,0h-25l0,0v-11.6l0,0H-303.7L-303.7-486.7z"/>
					</g>
				</g>
			</g>
		</g>
	</g>
</g>
<path class="st2" d="M104,1291.1V992.3"/>
<path class="st2" d="M163.6,992.3v298.8"/>
<g>
	<path class="st5" d="M158.1,996.7v16.8l0,0h-40l0,0v-16.8l0,0H158.1L158.1,996.7z"/>
</g>
<g>
	<path class="st5" d="M158.1,1269.8v16.8l0,0h-40l0,0v-16.8l0,0H158.1L158.1,1269.8z"/>
</g>
<g>
	<path class="st6" d="M128.8,1024.3v235.2l0,0h-12.1l0,0v-235.2l0,0H128.8L128.8,1024.3z"/>
</g>
<g>
	
		<linearGradient id="SVGID_6_" gradientUnits="userSpaceOnUse" x1="405.1938" y1="267.2534" x2="405.1938" y2="260.3973" gradientTransform="matrix(-1.777212e-10 1.3195 -1.294 -1.742920e-10 456.4203 607.1019)">
		<stop  offset="0" style="stop-color:#FFFFFF"/>
		<stop  offset="1" style="stop-color:#000000"/>
	</linearGradient>
	<path class="st13" d="M119.4,1017.9v247.8l0,0h-8.8l0,0v-247.8l0,0H119.4L119.4,1017.9z"/>
</g>
<path class="st2" d="M104,1290.9V992.3"/>
<path class="st2" d="M163.7,992.3v298.7"/>
<g>
	<path class="st8" d="M153.9,998.2v286.1l0,0h-31.5l0,0V998.2l0,0H153.9L153.9,998.2z"/>
</g>
<path class="st2" d="M104,1291.1V992.3"/>
<path class="st2" d="M164,992.3v298.8"/>
<g>
	<path class="st9" d="M153.9,998.2V1284l0,0H146l0,0V998.2l0,0H153.9L153.9,998.2z"/>
</g>
<g>
	<path class="st10" d="M130.9,998.3v285.9l0,0H123l0,0V998.3l0,0H130.9L130.9,998.3z"/>
</g>
<g>
	<path class="st5" d="M121.7,1259.1v8.1l0,0h-12.8l0,0v-8.1l0,0H121.7L121.7,1259.1z"/>
</g>
<g>
	<path class="st5" d="M121.7,1016.6v8.1l0,0h-12.8l0,0v-8.1l0,0H121.7L121.7,1016.6z"/>
</g>
<g transform="matrix(1,-0.0031,0.0031,1,-0.0189,0.0133)">
	<path class="st11" d="M151.4,997.9l0,14.9l0,0l-33,0l0,0l0-14.9l0,0L151.4,997.9L151.4,997.9z"/>
</g>
<g>
	<path class="st11" d="M154.7,1270v14.9l0,0h-32.4l0,0V1270l0,0H154.7L154.7,1270z"/>
</g>
<path class="st2" d="M104,680.1V381.3"/>
<path class="st2" d="M163.6,381.3v298.8"/>
<g>
	<path class="st5" d="M158.1,385.7v16.8l0,0h-40l0,0v-16.8l0,0H158.1L158.1,385.7z"/>
</g>
<g>
	<path class="st5" d="M158.1,658.8v16.8l0,0h-40l0,0v-16.8l0,0H158.1L158.1,658.8z"/>
</g>
<g>
	<path class="st6" d="M128.8,413.3v235.2l0,0h-12.1l0,0V413.3l0,0H128.8L128.8,413.3z"/>
</g>
<g>
	
		<linearGradient id="SVGID_7_" gradientUnits="userSpaceOnUse" x1="-57.9854" y1="267.2534" x2="-57.9854" y2="260.3973" gradientTransform="matrix(-1.777212e-10 1.3195 -1.294 -1.742920e-10 456.4203 607.1019)">
		<stop  offset="0" style="stop-color:#FFFFFF"/>
		<stop  offset="1" style="stop-color:#000000"/>
	</linearGradient>
	<path class="st14" d="M119.4,406.7v247.8l0,0h-8.8l0,0V406.7l0,0H119.4L119.4,406.7z"/>
</g>
<path class="st2" d="M104,679.9V381.3"/>
<path class="st2" d="M163.7,381.3v298.7"/>
<g>
	<path class="st8" d="M153.9,387.2v286.1l0,0h-31.5l0,0V387.2l0,0H153.9L153.9,387.2z"/>
</g>
<path class="st2" d="M104,680.1V381.3"/>
<path class="st2" d="M164,381.3v298.8"/>
<g>
	<path class="st9" d="M153.9,387.2v285.7l0,0H146l0,0V387.2l0,0H153.9L153.9,387.2z"/>
</g>
<g>
	<path class="st10" d="M130.9,387.2v285.9l0,0H123l0,0V387.2l0,0H130.9L130.9,387.2z"/>
</g>
<g>
	<path class="st5" d="M121.7,648v8.1l0,0h-12.8l0,0V648l0,0H121.7L121.7,648z"/>
</g>
<g>
	<path class="st5" d="M121.7,405.6v8.1l0,0h-12.8l0,0v-8.1l0,0H121.7L121.7,405.6z"/>
</g>
<g transform="matrix(1,-0.0031,0.0031,1,-0.0189,0.0133)">
	<path class="st11" d="M153.3,386.8l0,14.9l0,0l-33,0l0,0l0-14.9l0,0L153.3,386.8L153.3,386.8z"/>
</g>
<g>
	<path class="st11" d="M154.7,658.9v14.9l0,0h-32.4l0,0v-14.9l0,0H154.7L154.7,658.9z"/>
</g>
<path class="st2" d="M853.2,682.6v-304l0,0h61.6l0,0v304"/>
<g>
	<path class="st5" d="M858.9,678.2v-17.1l0,0h41.4l0,0v17.1l0,0H858.9L858.9,678.2z"/>
</g>
<g>
	<path class="st5" d="M858.9,400.1V383l0,0h41.4l0,0v17.1l0,0H858.9L858.9,400.1z"/>
</g>
<g>
	<path class="st6" d="M889.2,650.1V410.7l0,0h12.5l0,0v239.3l0,0H889.2L889.2,650.1z"/>
</g>
<g>
	
		<linearGradient id="SVGID_8_" gradientUnits="userSpaceOnUse" x1="614.5067" y1="180.2174" x2="614.5067" y2="173.2422" gradientTransform="matrix(1.804139e-10 -1.3395 1.3136 1.769328e-10 671.31 1353.6545)">
		<stop  offset="0" style="stop-color:#FFFFFF"/>
		<stop  offset="1" style="stop-color:#000000"/>
	</linearGradient>
	<path class="st15" d="M898.8,656.6V404.4l0,0h9.2l0,0v252.2l0,0H898.8L898.8,656.6z"/>
</g>
<path class="st2" d="M853.2,682.6V378.7l0,0h61.6l0,0v303.9"/>
<g>
	<path class="st8" d="M863.3,676.6V385.3l0,0h32.6l0,0v291.3l0,0H863.3L863.3,676.6z"/>
</g>
<path class="st2" d="M853.5,680.2V381.4l0,0h60l0,0v298.8"/>
<g>
	<path class="st9" d="M863.3,676.6V385.7l0,0h8.1l0,0v290.9l0,0H863.3L863.3,676.6z"/>
</g>
<g>
	<path class="st10" d="M887,676.6V385.7l0,0h8.1l0,0v290.9l0,0H887L887,676.6z"/>
</g>
<g>
	<path class="st5" d="M896.6,411.1v-8.2l0,0h13.3l0,0v8.2l0,0H896.6L896.6,411.1z"/>
</g>
<g>
	<path class="st5" d="M896.6,657.9v-8.2l0,0h13.3l0,0v8.2l0,0H896.6L896.6,657.9z"/>
</g>
<g transform="matrix(1,-0.0031,0.0031,1,-0.0189,0.0133)">
	<path class="st11" d="M860.6,680l0-15.2l0,0l34,0l0,0l0,15.2l0,0L860.6,680L860.6,680z"/>
</g>
<g>
	<path class="st11" d="M862.5,400v-15.2l0,0H896l0,0V400l0,0H862.5L862.5,400z"/>
</g>
<path class="st2" d="M853.2,377.1v-304l0,0h61.6l0,0v304"/>
<g>
	<path class="st5" d="M858.9,372.5v-17.1l0,0h41.4l0,0v17.1l0,0H858.9L858.9,372.5z"/>
</g>
<g>
	<path class="st5" d="M858.9,94.6V77.5l0,0h41.4l0,0v17.1l0,0H858.9L858.9,94.6z"/>
</g>
<g>
	<path class="st6" d="M889.2,344.5V105.2l0,0h12.5l0,0v239.3l0,0H889.2L889.2,344.5z"/>
</g>
<g>
	
		<linearGradient id="SVGID_9_" gradientUnits="userSpaceOnUse" x1="842.5883" y1="180.2174" x2="842.5883" y2="173.2422" gradientTransform="matrix(1.804139e-10 -1.3395 1.3136 1.769328e-10 671.31 1353.6545)">
		<stop  offset="0" style="stop-color:#FFFFFF"/>
		<stop  offset="1" style="stop-color:#000000"/>
	</linearGradient>
	<path class="st16" d="M898.8,351.1V98.9l0,0h9.2l0,0v252.2l0,0H898.8L898.8,351.1z"/>
</g>
<path class="st2" d="M853.2,377.1V73.2l0,0h61.6l0,0v303.9"/>
<g>
	<path class="st8" d="M863.3,371V79.8l0,0h32.6l0,0V371l0,0H863.3L863.3,371z"/>
</g>
<path class="st2" d="M853.5,374.7V75.9l0,0h60l0,0v298.8"/>
<g>
	<path class="st9" d="M863.3,371V80.2l0,0h8.1l0,0V371l0,0H863.3L863.3,371z"/>
</g>
<g>
	<path class="st10" d="M887,371v-291l0,0h8.1l0,0v290.9l0,0H887V371z"/>
</g>
<g>
	<path class="st5" d="M896.6,105.6v-8.2l0,0h13.3l0,0v8.2l0,0H896.6L896.6,105.6z"/>
</g>
<g>
	<path class="st5" d="M896.6,352.3v-8.2l0,0h13.3l0,0v8.2l0,0H896.6L896.6,352.3z"/>
</g>
<g transform="matrix(1,-0.0031,0.0031,1,-0.0189,0.0133)">
	<path class="st11" d="M861.6,374.5l0-15.2l0,0l34,0l0,0l0,15.2l0,0L861.6,374.5L861.6,374.5z"/>
</g>
<g>
	<path class="st11" d="M862.5,94.4V79.2l0,0H896l0,0v15.2l0,0H862.5L862.5,94.4z"/>
</g>
<path class="st2" d="M104,985.6V686.8"/>
<path class="st2" d="M163.6,686.8v298.8"/>
<g>
	<path class="st5" d="M158.1,691.2V708l0,0h-40l0,0v-16.8l0,0H158.1L158.1,691.2z"/>
</g>
<g>
	<path class="st5" d="M158.1,964.3v16.8l0,0h-40l0,0v-16.8l0,0H158.1L158.1,964.3z"/>
</g>
<g>
	<path class="st6" d="M128.8,718.8V954l0,0h-12.1l0,0V718.8l0,0H128.8L128.8,718.8z"/>
</g>
<g>
	
		<linearGradient id="SVGID_10_" gradientUnits="userSpaceOnUse" x1="173.5532" y1="267.2534" x2="173.5532" y2="260.3973" gradientTransform="matrix(-1.777212e-10 1.3195 -1.294 -1.742920e-10 456.4203 607.1019)">
		<stop  offset="0" style="stop-color:#FFFFFF"/>
		<stop  offset="1" style="stop-color:#000000"/>
	</linearGradient>
	<path class="st17" d="M119.4,712.2V960l0,0h-8.8l0,0V712.2l0,0H119.4L119.4,712.2z"/>
</g>
<path class="st2" d="M104,985.4V686.8"/>
<path class="st2" d="M163.7,686.8v298.7"/>
<g>
	<path class="st8" d="M153.9,692.7v286.1l0,0h-31.5l0,0V692.7l0,0H153.9L153.9,692.7z"/>
</g>
<path class="st2" d="M104,985.6V686.8"/>
<path class="st2" d="M164,686.8v298.8"/>
<g>
	<path class="st9" d="M153.9,692.7v285.7l0,0H146l0,0V692.7l0,0H153.9L153.9,692.7z"/>
</g>
<g>
	<path class="st10" d="M130.9,692.7v285.9l0,0H123l0,0V692.7l0,0H130.9L130.9,692.7z"/>
</g>
<g>
	<path class="st5" d="M121.7,953.5v8.1l0,0h-12.8l0,0v-8.1l0,0H121.7L121.7,953.5z"/>
</g>
<g>
	<path class="st5" d="M121.7,711.1v8.1l0,0h-12.8l0,0v-8.1l0,0H121.7L121.7,711.1z"/>
</g>
<g transform="matrix(1,-0.0031,0.0031,1,-0.0189,0.0133)">
	<path class="st11" d="M152.4,692.3l0,14.9l0,0l-33,0l0,0l0-14.9l0,0L152.4,692.3L152.4,692.3z"/>
</g>
<g>
	<path class="st11" d="M154.7,964.4v15.1l0,0h-32.4l0,0v-14.9l0,0h32.4V964.4z"/>
</g>
</svg>
