<?xml version="1.0" encoding="utf-8"?>
<!-- Generator: Adobe Illustrator 23.0.3, SVG Export Plug-In . SVG Version: 6.00 Build 0)  -->
<svg version="1.1" id="Layer_1" xmlns="http://www.w3.org/2000/svg" xmlns:xlink="http://www.w3.org/1999/xlink" x="0px" y="0px"
	 viewBox="0 0 768 1024" style="enable-background:new 0 0 768 1024;" xml:space="preserve">
<style type="text/css">
	.st0{fill:none;stroke:#000000;stroke-miterlimit:10;}
	.st1{clip-path:url(#SVGID_2_);}
	.st2{fill-opacity:0;stroke:#000000;stroke-miterlimit:10;stroke-opacity:0;}
	.st3{fill:#FFFFFF;stroke:#000000;stroke-miterlimit:10;}
	.st4{opacity:0.5;fill:url(#SVGID_3_);stroke:#000000;stroke-miterlimit:10;stroke-opacity:0;enable-background:new    ;}
	.st5{stroke:#000000;stroke-miterlimit:10;stroke-opacity:0;}
	.st6{fill:#FFFFFF;stroke:#000000;stroke-miterlimit:10;stroke-opacity:0;}
	.st7{fill:url(#SVGID_4_);stroke:#000000;stroke-width:0.3;stroke-miterlimit:10;}
	.st8{fill:#0D748C;stroke:#000000;stroke-width:0.5;stroke-miterlimit:10;}
	.st9{opacity:0.6;stroke:#000000;stroke-miterlimit:10;stroke-opacity:0;enable-background:new    ;}
	.st10{opacity:0.3;stroke:#000000;stroke-miterlimit:10;stroke-opacity:0;enable-background:new    ;}
	.st11{opacity:0.27;stroke:#000000;stroke-miterlimit:10;stroke-opacity:0;enable-background:new    ;}
	.st12{fill:url(#SVGID_5_);stroke:#000000;stroke-width:0.3;stroke-miterlimit:10;}
	.st13{fill:url(#SVGID_6_);stroke:#000000;stroke-width:0.3;stroke-miterlimit:10;}
	.st14{fill:url(#SVGID_7_);stroke:#000000;stroke-width:0.3;stroke-miterlimit:10;}
	.st15{fill:url(#SVGID_8_);stroke:#000000;stroke-width:0.3;stroke-miterlimit:10;}
	.st16{fill:url(#SVGID_9_);stroke:#000000;stroke-width:0.3;stroke-miterlimit:10;}
	.st17{fill:url(#SVGID_10_);stroke:#000000;stroke-width:0.3;stroke-miterlimit:10;}
	.st18{fill:none;}
	.st19{font-family:'Helvetica';}
	.st20{font-size:78px;}
	.st21{font-size:45px;}
</style>
<g transform="translate(0,0)">
	<g transform="translate(0.5,0.5) matrix(1,0,0,1,38,15)">
		<g>
			<g transform="translate(0,0) scale(0.15,3.06)">
				<g>
					<path d="M4861.3,6.5V10l0,0h-5116l0,0V6.5l0,0H4861.3L4861.3,6.5z"/>
					<g transform="scale(6.666666666666667,0.32679738562091504)">
						<path class="st0" d="M729.2,19.9v10.5l0,0H-38.2l0,0V19.9l0,0H729.2L729.2,19.9z"/>
					</g>
				</g>
			</g>
		</g>
	</g>
	<g transform="translate(0.5,0.5) matrix(1,0,0,1,45,35)">
		<g>
			<g transform="translate(0,0) scale(5.47,0.15)">
				<g>
					<path d="M122.5,71.2v6120.3l0,0h-2.9l0,0V71.2l0,0H122.5L122.5,71.2z"/>
					<g transform="scale(0.18281535648994515,6.666666666666667)">
						<path class="st0" d="M670.2,10.7v918l0,0h-15.8l0,0v-918l0,0L670.2,10.7L670.2,10.7z"/>
					</g>
				</g>
			</g>
		</g>
	</g>
	<g transform="translate(0.5,0.5) matrix(1,0,0,1,45,292)">
		<g>
			<g transform="translate(0,0) scale(5.47,0.15)">
				<g>
					<path d="M4.1-1642.2v6120.3l0,0H1.2l0,0v-6120.3l0,0L4.1-1642.2L4.1-1642.2z"/>
					<g transform="scale(0.18281535648994515,6.666666666666667)">
						<path class="st0" d="M22.5-246.3v918l0,0H6.7l0,0v-918l0,0L22.5-246.3L22.5-246.3z"/>
					</g>
				</g>
			</g>
		</g>
	</g>
	<g transform="translate(0.5,0.5) matrix(1,0,0,1,589,15)">
		<g>
			<g transform="translate(0,0) scale(0.16,1.01)">
				<g>
					<path d="M1113.7,940v11.1l0,0h-1583l0,0V940l0,0H1113.7L1113.7,940z"/>
					<g transform="scale(6.25,0.9900990099009901)">
						<path class="st0" d="M178.2,949.4v11.2l0,0H-75.1l0,0v-11.2l0,0H178.2L178.2,949.4z"/>
					</g>
				</g>
			</g>
		</g>
	</g>
	<g transform="translate(0.5,0.5) matrix(1,0,0,1,589,166)">
		<g>
			<g transform="translate(0,0) scale(0.16,1.54)">
				<g>
					<path d="M-1264.9,518.4v7.3l0,0h-2413.8l0,0v-7.3l0,0H-1264.9L-1264.9,518.4z"/>
					<g transform="scale(6.25,0.6493506493506493)">
						<path class="st0" d="M-202.4,798.4v11.2l0,0h-386.2l0,0v-11.2l0,0H-202.4L-202.4,798.4z"/>
					</g>
				</g>
			</g>
		</g>
	</g>
	<g transform="translate(0,0) matrix(1,0,0,1,48,230)">
		<g>
			<g>
				<g>
					<defs>
						<rect id="SVGID_1_" x="32.9" y="-179.6" width="146.2" height="212.7"/>
					</defs>
					<clipPath id="SVGID_2_">
						<use xlink:href="#SVGID_1_"  style="overflow:visible;"/>
					</clipPath>
					<g class="st1">
						<g transform="translate(0,0) scale(1.2608695652173916,1.268591426071741)">
							<g>
								<g>
									<path class="st2" d="M142-141.6V26.1l0,0H26.1l0,0v-167.6l0,0H142V-141.6z"/>
								</g>
								<g>
									<path class="st3" d="M136.2-137.4V22.1l0,0H30.7l0,0v-159.5l0,0H136.2L136.2-137.4z"/>
								</g>
							</g>
							<g>
								<g>
									<path class="st2" d="M142.7-141.6V26.1l0,0H26.8l0,0v-167.6l0,0h115.9V-141.6z"/>
								</g>
								<g>
									
										<linearGradient id="SVGID_3_" gradientUnits="userSpaceOnUse" x1="-117.0079" y1="374.4219" x2="15.959" y2="241.455" gradientTransform="matrix(-2.141288e-10 1.5801 -1.6192 -2.167595e-10 623.283 61.3135)">
										<stop  offset="0" style="stop-color:#FFFFFF"/>
										<stop  offset="0.1742" style="stop-color:#000000"/>
										<stop  offset="0.3708" style="stop-color:#FFFFFF"/>
										<stop  offset="0.4663" style="stop-color:#ADADAD"/>
										<stop  offset="0.7472" style="stop-color:#585858"/>
										<stop  offset="0.8427" style="stop-color:#FFFFFF"/>
										<stop  offset="1" style="stop-color:#191919"/>
									</linearGradient>
									<path class="st4" d="M136.9,22.4v-160.3H31.6L31.2,22.4H136.9z"/>
								</g>
							</g>
						</g>
					</g>
				</g>
			</g>
		</g>
	</g>
	<g transform="translate(0,0) matrix(-1,1.2246467991473532e-16,-1.2246467991473532e-16,-1,586.6363636363636,66.07499999999995)">
		<g>
			<g transform="translate(0,0) scale(1.319485400693729,1.2940253814344786)">
				<g>
					<g>
						<path class="st5" d="M-44.3-688.9v9.7l0,0H-67l0,0v-9.7l0,0H-44.3L-44.3-688.9z"/>
					</g>
					<g>
						<path class="st5" d="M-44.3-532v9.7l0,0H-67l0,0v-9.7l0,0H-44.3L-44.3-532z"/>
					</g>
					<g>
						<path class="st6" d="M-60.9-673.1V-538l0,0h-6.9l0,0v-135.1l0,0H-60.9L-60.9-673.1z"/>
					</g>
					<g>
						
							<linearGradient id="SVGID_4_" gradientUnits="userSpaceOnUse" x1="129.6709" y1="-1193.7566" x2="129.6709" y2="-1198.8947" gradientTransform="matrix(-2.345005e-10 1.7752 -1.6422 -2.255383e-10 -2031.644 -835.7967)">
							<stop  offset="0" style="stop-color:#FFFFFF"/>
							<stop  offset="1" style="stop-color:#000000"/>
						</linearGradient>
						<path class="st7" d="M-66.2-676.8v142.4l0,0h-5l0,0v-142.4l0,0L-66.2-676.8L-66.2-676.8z"/>
					</g>
				</g>
				<g>
					<g>
						<path class="st8" d="M-46.7-688.1v164.4l0,0h-17.9l0,0v-164.4l0,0H-46.7L-46.7-688.1z"/>
					</g>
				</g>
				<g>
					<g>
						<path class="st9" d="M-46.7-688.1v164.2l0,0h-4.5l0,0v-164.2l0,0H-46.7L-46.7-688.1z"/>
					</g>
					<g>
						<path class="st10" d="M-59.7-688v164.2l0,0h-4.5l0,0V-688l0,0H-59.7L-59.7-688z"/>
					</g>
					<g>
						<path class="st5" d="M-65-538.2v4.6l0,0h-7.3l0,0v-4.6l0,0H-65L-65-538.2z"/>
					</g>
					<g>
						<path class="st5" d="M-65-677.5v4.6l0,0h-7.3l0,0v-4.6l0,0H-65L-65-677.5z"/>
					</g>
					<g transform="matrix(1,-0.0031,0.0031,1,-0.0189,0.0133)">
						<path class="st11" d="M-44.2-688.7v8.6l0,0h-18.7l0,0v-8.6l0,0H-44.2L-44.2-688.7z"/>
					</g>
					<g>
						<path class="st11" d="M-46.2-532v8.6l0,0h-18.4l0,0v-8.6l0,0H-46.2L-46.2-532z"/>
					</g>
				</g>
			</g>
		</g>
	</g>
	<g transform="translate(0,0) matrix(-1,1.2246467991473532e-16,-1.2246467991473532e-16,-1,455.6363636363636,66.21250000000006)">
		<g>
			<g transform="translate(0,0) scale(1.3394776037345433,1.3136318266077283)">
				<g>
					<g>
						<path class="st2" d="M-137.4-508.7v172.1l0,0h-34.5l0,0v-172.1l0,0H-137.4L-137.4-508.7z"/>
					</g>
					<g>
						<path class="st5" d="M-140.6-506.1v9.7l0,0h-23.1l0,0v-9.7l0,0H-140.6L-140.6-506.1z"/>
					</g>
					<g>
						<path class="st5" d="M-140.6-348.8v9.7l0,0h-23.1l0,0v-9.7l0,0H-140.6L-140.6-348.8z"/>
					</g>
					<g>
						<path class="st6" d="M-157.6-490.2v135.4l0,0h-7l0,0v-135.4l0,0H-157.6L-157.6-490.2z"/>
					</g>
					<g>
						
							<linearGradient id="SVGID_5_" gradientUnits="userSpaceOnUse" x1="146.6869" y1="-1167.0634" x2="146.6869" y2="-1172.2908" gradientTransform="matrix(-2.416604e-10 1.8295 -1.6924 -2.324246e-10 -2143.1472 -691.0076)">
							<stop  offset="0" style="stop-color:#FFFFFF"/>
							<stop  offset="1" style="stop-color:#000000"/>
						</linearGradient>
						<path class="st12" d="M-162.9-494v142.7l0,0h-5.1l0,0V-494l0,0H-162.9L-162.9-494z"/>
					</g>
				</g>
				<g>
					<g>
						<path class="st2" d="M-137.4-508.7v172l0,0h-34.5l0,0v-172l0,0H-137.4L-137.4-508.7z"/>
					</g>
					<g>
						<path class="st8" d="M-143.1-505.2v164.8l0,0h-18.2l0,0v-164.8l0,0H-143.1L-143.1-505.2z"/>
					</g>
				</g>
				<g>
					<g>
						<path class="st2" d="M-137.5-507.3v169.1l0,0h-33.6l0,0v-169.1l0,0H-137.5L-137.5-507.3z"/>
					</g>
					<g>
						<path class="st9" d="M-143.1-505.2v164.6l0,0h-4.5l0,0v-164.6l0,0H-143.1L-143.1-505.2z"/>
					</g>
					<g>
						<path class="st10" d="M-156.3-505.2v164.6l0,0h-4.5l0,0v-164.6l0,0H-156.3L-156.3-505.2z"/>
					</g>
					<g>
						<path class="st5" d="M-161.7-355v4.6l0,0h-7.4l0,0v-4.6l0,0H-161.7L-161.7-355z"/>
					</g>
					<g>
						<path class="st5" d="M-161.7-494.6v4.6l0,0h-7.4l0,0v-4.6l0,0H-161.7L-161.7-494.6z"/>
					</g>
					<g transform="matrix(1,-0.0031,0.0031,1,-0.0189,0.0133)">
						<path class="st11" d="M-141.2-506.2v8.6l0,0h-19.1l0,0v-8.6l0,0H-141.2L-141.2-506.2z"/>
					</g>
					<g>
						<path class="st11" d="M-142.6-348.8v8.6l0,0h-18.7l0,0v-8.6l0,0H-142.6L-142.6-348.8z"/>
					</g>
				</g>
			</g>
		</g>
	</g>
</g>
<path class="st2" d="M78.2,959.6V737.5"/>
<path class="st2" d="M122.9,737.5v222.1"/>
<g>
	<path class="st5" d="M118.8,740.8v12.5l0,0h-30l0,0v-12.5l0,0H118.8L118.8,740.8z"/>
</g>
<g>
	<path class="st5" d="M118.8,943.8v12.5l0,0h-30l0,0v-12.5l0,0H118.8L118.8,943.8z"/>
</g>
<g>
	<path class="st6" d="M96.8,761.3v174.8l0,0h-9.1l0,0V761.3l0,0H96.8L96.8,761.3z"/>
</g>
<g>
	
		<linearGradient id="SVGID_6_" gradientUnits="userSpaceOnUse" x1="184.617" y1="18.5238" x2="184.617" y2="13.3857" gradientTransform="matrix(-1.777212e-10 1.3195 -1.294 -1.742920e-10 107.1462 604.9979)">
		<stop  offset="0" style="stop-color:#FFFFFF"/>
		<stop  offset="1" style="stop-color:#000000"/>
	</linearGradient>
	<path class="st13" d="M89.8,756.5v184.2l0,0h-6.6l0,0V756.5l0,0H89.8L89.8,756.5z"/>
</g>
<path class="st2" d="M78.2,959.5v-222"/>
<path class="st2" d="M123,737.5v222"/>
<g>
	<path class="st8" d="M115.6,741.9v212.7l0,0H92l0,0V741.9l0,0H115.6L115.6,741.9z"/>
</g>
<path class="st2" d="M78.2,959.6V737.5"/>
<path class="st2" d="M123.2,737.5v222.1"/>
<g>
	<path class="st9" d="M115.6,741.9v212.4l0,0h-5.9l0,0V741.9l0,0H115.6L115.6,741.9z"/>
</g>
<g>
	<path class="st10" d="M98.4,742v212.5l0,0h-5.9l0,0V742l0,0H98.4L98.4,742z"/>
</g>
<g>
	<path class="st5" d="M91.5,935.8v6l0,0h-9.6l0,0v-6l0,0H91.5L91.5,935.8z"/>
</g>
<g>
	<path class="st5" d="M91.5,755.6v6l0,0h-9.6l0,0v-6l0,0H91.5L91.5,755.6z"/>
</g>
<g transform="matrix(1,-0.0031,0.0031,1,-0.0189,0.0133)">
	<path class="st11" d="M113.8,741.7v11.1l0,0H89.1l0,0v-11.1l0,0H113.8L113.8,741.7z"/>
</g>
<g>
	<path class="st11" d="M116.2,943.9V955l0,0H91.9l0,0v-11.1l0,0H116.2L116.2,943.9z"/>
</g>
<path class="st2" d="M78.2,505.4V283.3"/>
<path class="st2" d="M122.9,283.3v222.1"/>
<g>
	<path class="st5" d="M118.8,286.6v12.5l0,0h-30l0,0v-12.5l0,0H118.8L118.8,286.6z"/>
</g>
<g>
	<path class="st5" d="M118.8,489.6v12.5l0,0h-30l0,0v-12.5l0,0H118.8L118.8,489.6z"/>
</g>
<g>
	<path class="st6" d="M96.8,307.1v174.8l0,0h-9.1l0,0V307.1l0,0H96.8L96.8,307.1z"/>
</g>
<g>
	
		<linearGradient id="SVGID_7_" gradientUnits="userSpaceOnUse" x1="-159.6801" y1="18.5238" x2="-159.6801" y2="13.3857" gradientTransform="matrix(-1.777212e-10 1.3195 -1.294 -1.742920e-10 107.1462 604.9979)">
		<stop  offset="0" style="stop-color:#FFFFFF"/>
		<stop  offset="1" style="stop-color:#000000"/>
	</linearGradient>
	<path class="st14" d="M89.8,302.2v184.2l0,0h-6.6l0,0V302.2l0,0H89.8L89.8,302.2z"/>
</g>
<path class="st2" d="M78.2,505.3v-222"/>
<path class="st2" d="M123,283.3v222"/>
<g>
	<path class="st8" d="M115.6,287.7v212.7l0,0H92l0,0V287.7l0,0H115.6L115.6,287.7z"/>
</g>
<path class="st2" d="M78.2,505.4V283.3"/>
<path class="st2" d="M123.2,283.3v222.1"/>
<g>
	<path class="st9" d="M115.6,287.7v212.4l0,0h-5.9l0,0V287.7l0,0H115.6L115.6,287.7z"/>
</g>
<g>
	<path class="st10" d="M98.4,287.7v212.5l0,0h-5.9l0,0V287.7l0,0H98.4L98.4,287.7z"/>
</g>
<g>
	<path class="st5" d="M91.5,481.6v6l0,0h-9.6l0,0v-6l0,0H91.5L91.5,481.6z"/>
</g>
<g>
	<path class="st5" d="M91.5,301.4v6l0,0h-9.6l0,0v-6l0,0H91.5L91.5,301.4z"/>
</g>
<g transform="matrix(1,-0.0031,0.0031,1,-0.0189,0.0133)">
	<path class="st11" d="M115.2,287.4v11.1l0,0H90.5l0,0v-11.1l0,0H115.2L115.2,287.4z"/>
</g>
<g>
	<path class="st11" d="M116.2,489.7v11.1l0,0H91.9l0,0v-11.1l0,0H116.2L116.2,489.7z"/>
</g>
<path class="st2" d="M639.7,507.3v-226l0,0h46.2l0,0v226"/>
<g>
	<path class="st5" d="M644,504v-12.7l0,0h31l0,0V504l0,0H644L644,504z"/>
</g>
<g>
	<path class="st5" d="M644,297.3v-12.7l0,0h31l0,0v12.7l0,0H644L644,297.3z"/>
</g>
<g>
	<path class="st6" d="M666.7,483.1V305.2l0,0h9.4l0,0v177.9l0,0H666.7L666.7,483.1z"/>
</g>
<g>
	
		<linearGradient id="SVGID_8_" gradientUnits="userSpaceOnUse" x1="460.5813" y1="-66.3334" x2="460.5813" y2="-71.5607" gradientTransform="matrix(1.804139e-10 -1.3395 1.3136 1.769328e-10 767.9355 1011.1986)">
		<stop  offset="0" style="stop-color:#FFFFFF"/>
		<stop  offset="1" style="stop-color:#000000"/>
	</linearGradient>
	<path class="st15" d="M673.9,488V300.5l0,0h6.9l0,0V488l0,0H673.9L673.9,488z"/>
</g>
<path class="st2" d="M639.7,507.3V281.4l0,0h46.2l0,0v225.9"/>
<g>
	<path class="st8" d="M647.3,502.8V286.3l0,0h24.4l0,0v216.5l0,0H647.3L647.3,502.8z"/>
</g>
<path class="st2" d="M639.9,505.5V283.4l0,0h45l0,0v222.1"/>
<g>
	<path class="st9" d="M647.3,502.8V286.6l0,0h6.1l0,0v216.2l0,0H647.3L647.3,502.8z"/>
</g>
<g>
	<path class="st10" d="M665,502.8V286.6l0,0h6.1l0,0v216.2l0,0H665L665,502.8z"/>
</g>
<g>
	<path class="st5" d="M672.2,305.5v-6.1l0,0h10l0,0v6.1l0,0H672.2L672.2,305.5z"/>
</g>
<g>
	<path class="st5" d="M672.2,488.9v-6.1l0,0h10l0,0v6.1l0,0H672.2L672.2,488.9z"/>
</g>
<g transform="matrix(1,-0.0031,0.0031,1,-0.0189,0.0133)">
	<path class="st11" d="M645.3,505.4v-11.3l0,0h25.5l0,0v11.3l0,0H645.3L645.3,505.4z"/>
</g>
<g>
	<path class="st11" d="M646.7,297.2v-11.3l0,0h25.1l0,0v11.3l0,0H646.7L646.7,297.2z"/>
</g>
<path class="st2" d="M639.7,280.2v-226l0,0h46.2l0,0v226"/>
<g>
	<path class="st5" d="M644,276.8v-12.7l0,0h31l0,0v12.7l0,0H644L644,276.8z"/>
</g>
<g>
	<path class="st5" d="M644,70.2V57.5l0,0h31l0,0v12.7l0,0H644L644,70.2z"/>
</g>
<g>
	<path class="st6" d="M666.7,256V78.1l0,0h9.4l0,0V256l0,0H666.7L666.7,256z"/>
</g>
<g>
	
		<linearGradient id="SVGID_9_" gradientUnits="userSpaceOnUse" x1="630.1221" y1="-66.3334" x2="630.1221" y2="-71.5607" gradientTransform="matrix(1.804139e-10 -1.3395 1.3136 1.769328e-10 767.9355 1011.1986)">
		<stop  offset="0" style="stop-color:#FFFFFF"/>
		<stop  offset="1" style="stop-color:#000000"/>
	</linearGradient>
	<path class="st16" d="M673.9,260.9V73.4l0,0h6.9l0,0v187.5l0,0H673.9L673.9,260.9z"/>
</g>
<path class="st2" d="M639.7,280.2V54.3l0,0h46.2l0,0v225.9"/>
<g>
	<path class="st8" d="M647.3,275.7V59.2l0,0h24.4l0,0v216.5l0,0H647.3L647.3,275.7z"/>
</g>
<path class="st2" d="M639.9,278.4V56.3l0,0h45l0,0v222.1"/>
<g>
	<path class="st9" d="M647.3,275.7V59.5l0,0h6.1l0,0v216.2l0,0H647.3L647.3,275.7z"/>
</g>
<g>
	<path class="st10" d="M665,275.7V59.4l0,0h6.1l0,0v216.2l0,0H665V275.7z"/>
</g>
<g>
	<path class="st5" d="M672.2,78.4v-6.1l0,0h10l0,0v6.1l0,0H672.2L672.2,78.4z"/>
</g>
<g>
	<path class="st5" d="M672.2,261.8v-6.1l0,0h10l0,0v6.1l0,0H672.2L672.2,261.8z"/>
</g>
<g transform="matrix(1,-0.0031,0.0031,1,-0.0189,0.0133)">
	<path class="st11" d="M646,278.3V267l0,0h25.5l0,0v11.3l0,0H646L646,278.3z"/>
</g>
<g>
	<path class="st11" d="M646.7,70.1V58.8l0,0h25.1l0,0v11.3l0,0H646.7L646.7,70.1z"/>
</g>
<path class="st2" d="M78.2,732.5V510.4"/>
<path class="st2" d="M122.9,510.4v222.1"/>
<g>
	<path class="st5" d="M118.8,513.7v12.5l0,0h-30l0,0v-12.5l0,0H118.8L118.8,513.7z"/>
</g>
<g>
	<path class="st5" d="M118.8,716.7v12.5l0,0h-30l0,0v-12.5l0,0H118.8L118.8,716.7z"/>
</g>
<g>
	<path class="st6" d="M96.8,534.2V709l0,0h-9.1l0,0V534.2l0,0H96.8L96.8,534.2z"/>
</g>
<g>
	
		<linearGradient id="SVGID_10_" gradientUnits="userSpaceOnUse" x1="12.4305" y1="18.5238" x2="12.4305" y2="13.3857" gradientTransform="matrix(-1.777212e-10 1.3195 -1.294 -1.742920e-10 107.1462 604.9979)">
		<stop  offset="0" style="stop-color:#FFFFFF"/>
		<stop  offset="1" style="stop-color:#000000"/>
	</linearGradient>
	<path class="st17" d="M89.8,529.3v184.2l0,0h-6.6l0,0V529.3l0,0H89.8L89.8,529.3z"/>
</g>
<path class="st2" d="M78.2,732.4v-222"/>
<path class="st2" d="M123,510.4v222"/>
<g>
	<path class="st8" d="M115.6,514.8v212.7l0,0H92l0,0V514.8l0,0H115.6L115.6,514.8z"/>
</g>
<path class="st2" d="M78.2,732.5V510.4"/>
<path class="st2" d="M123.2,510.4v222.1"/>
<g>
	<path class="st9" d="M115.6,514.8v212.4l0,0h-5.9l0,0V514.8l0,0H115.6L115.6,514.8z"/>
</g>
<g>
	<path class="st10" d="M98.4,514.8v212.5l0,0h-5.9l0,0V514.8l0,0H98.4L98.4,514.8z"/>
</g>
<g>
	<path class="st5" d="M91.5,708.7v6l0,0h-9.6l0,0v-6l0,0H91.5L91.5,708.7z"/>
</g>
<g>
	<path class="st5" d="M91.5,528.5v6l0,0h-9.6l0,0v-6l0,0H91.5L91.5,528.5z"/>
</g>
<g transform="matrix(1,-0.0031,0.0031,1,-0.0189,0.0133)">
	<path class="st11" d="M114.5,514.5v11.1l0,0H89.8l0,0v-11.1l0,0H114.5L114.5,514.5z"/>
</g>
<g>
	<path class="st11" d="M116.2,716.8V728l0,0H91.9l0,0v-11.1l0,0h24.3V716.8z"/>
</g>
<rect x="267.8" y="481" class="st18" width="232.5" height="78"/>
<text transform="matrix(1 0 0 1 267.75 537.032)" class="st19 st20">B1451</text>
<rect x="313.4" y="1.6" class="st18" width="147.5" height="78"/>
<text transform="matrix(1 0 0 1 313.3567 34.0045)" class="st19 st21">B1498</text>
<rect x="685.9" y="429.1" class="st18" width="78" height="147.5"/>
<text transform="matrix(0 1 -1 0 731.5459 429.0566)" class="st19 st21">B1453</text>
<rect x="8.7" y="417.6" class="st18" width="78" height="147.5"/>
<text transform="matrix(8.979319e-11 -1 1 8.979319e-11 41.0541 565.043)" class="st19 st21">B1447</text>
</svg>
