<?xml version="1.0" encoding="utf-8"?>
<!-- Generator: Adobe Illustrator 23.0.3, SVG Export Plug-In . SVG Version: 6.00 Build 0)  -->
<svg version="1.1" id="Layer_1" xmlns="http://www.w3.org/2000/svg" xmlns:xlink="http://www.w3.org/1999/xlink" x="0px" y="0px"
	 viewBox="0 0 255.1 329.4" style="enable-background:new 0 0 255.1 329.4;" xml:space="preserve">
<g transform="translate(0.000000,721.000000) scale(0.100000,-0.100000)">
	<path d="M2551.9,6980.5c3.4,0,6.8,0.1,10.2,0.1c-6.1,36-10.1,72.6-11.7,109.7c-273.3-3.9-670.9-8.5-1204.8-14
		c-413.9-4.5-950.1-10.3-1191.5-12.8c-48.1-0.6-100.3-1.3-154.9-2c-0.6-36.1-1.7-72.2-3.4-108.2c269.5,5,502.6,7.4,504.8,3.2
		c2-3.7,29.5-2868.5,26.6-2885.4c-0.2-4.1-113.7-11.1-253-13.6c-138.6-3.7-258.6-7.8-265.5-9.9c-26-6.9-32.2-105.2-8.8-131.9
		c8.6-9.8,88-12.5,271.2-9.5c106.8,1,199.6-0.2,240.8-3.4c24.1,3.6,48.3,5.5,72.3,5.5c13.7,0,27.3-0.7,40.7-1.8
		c13.1,1.1,26.2,1.8,39.2,1.8c7.6,0,15.2-0.3,22.7-0.6c0.3,0.6,0.5,1.1,0.8,1.1c3.7,2,120.9,3.8,260.6,4.1l253.5,1l9.1,38
		c15.6,63.2,9.4,95.2-21.2,104.3c-15.3,4.5-134.6,6.5-267,6.2c-131.5-0.6-240.3,1.4-241.6,3.9c-2.7,5-29.4,2858.1-27,2880.3
		c0.9,10.2,177.4,15.2,659.3,20.4c362.4,3.1,658.9,4.9,659.5,3.6c2.4-5.9,26.1-2880,23.5-2888.6c-1.7-5.8-46.8-10.1-99.2-11.3
		c-177.3-0.6-207.8-5.1-214.9-29.1c-10.2-34.5-5.2-88.1,10.4-102.2c25.4-23.2,822.1-17.4,840.6,6.3c4.9,5.9,7.6,36.3,7.2,66.7
		c-0.4,40.8-5.8,58-19.6,64.2c-10.3,4.1-96.3,5.6-191.9,2.7c-95.7-2.9-175.4-1.2-177.4,2.5c-4.4,9.7-40.3,2860.2-36.5,2880
		C2117,6971.8,2246.7,6977.2,2551.9,6980.5z M607.3,4035.1c-1.1-3.8-3.3-4.2-5.6-1.5c-2.4,5.9-31.4,2886.8-28.7,2938.1
		c6.2,126.5,11.2-191,22.7-1458.5C603.3,4704.8,608.7,4039.9,607.3,4035.1z"/>
	<path d="M2551.2,7278.6c-180.7-1.9-336-1.8-402.8-0.6c-31.8-6.2-63.8-9.5-95.6-9.5c-3.5,0-7,0.2-10.4,0.2
		c-33-6.7-66.4-10.2-99.4-10.2c-35,0-68.9,3.6-101.9,10.4c-307.3-5.6-1072.2-13.7-1187.7-12.5c-7.7-1.3-15.7-2.1-24.3-2.1
		c-1.6,0-3.1,0.2-4.7,0.2c-9.8-2.2-20.3-3.5-31.6-3.5c-10.2,0-19.8,1-28.8,2.8c-8.7-1.3-17.4-2.4-26.1-3.2
		c-7.1-2.9-14.6-5.2-22.7-6.8c-11.8-5.8-25.2-9.8-40.2-11.6c-9.7-5.2-20.5-9.2-32.5-11.6l0-2.7l-26.8-2.5
		c-10.4-0.8-21.6-0.8-28.3-0.3c-4.1-0.3-8.3-0.6-12.6-0.6c-7.6,0-14.8,0.7-21.7,1.7c-6.8-1-13.8-1.7-21.2-1.7
		c-4.4,0-8.5,0.4-12.6,0.7c-10.4-2.5-21.5-4-33.6-4c-7,0-13.5,0.6-19.9,1.4c-6.3-0.8-12.8-1.4-19.7-1.4c-11.7,0-22.5,1.4-32.6,3.8
		c-25.3-0.9-107.4-2.4-215.7-3.9c0.8-23.3,1.4-46.5,1.6-69.8c180.4,2.3,309.6,4,324.7,4.3c23.1,0.5,552,6.3,1176,13.2
		c406,5.1,798.4,9.7,1050.9,12.8c0.3,5.6,0.5,11.2,1,16.9c0.1,19.3,1.4,38.3,3.4,57.1C2554,7256.6,2552.6,7267.6,2551.2,7278.6z"/>
	<path d="M1452.2,6355.5c-8.6,2.6-95.9,3.4-193.9,3.3c-97-0.4-178.3-0.3-179.2,0c-1.2-0.7-3.2-35.5-4.3-78
		c-3.9-101.1,15.8-140.3,79-159c37.4-11.1,52.2-10.3,83.2,6.6c19.9,10.8,38.4,24.1,39.8,28.9c2,6.7,18.6,2.8,42.6-7.4
		c54.2-24.4,101.7-15.5,129.4,25.3c18.1,25.9,20.7,41.8,21.2,103.2C1469.4,6332.6,1465,6352.7,1452.2,6355.5z M1164.8,6172.7
		c-25.3,9.6-31.6,19.8-37.1,50.6c-12.2,81.9-12,82.8,55.6,85.7c79.2,3.6,73.7,6.3,76-31.9C1263.3,6192.5,1223.4,6149,1164.8,6172.7z
		 M1426,6216.8c-14.7-28.4-57.5-38-85.2-24c-14.4,7.3-22.8,21.6-24.8,37.3c-1.6,12.4-0.9,24.1-4,36.5c-3,11.7-5.9,21.9-6,34
		c-3,2.5-3.2,7.8,1.4,8.5c28.7,3.9,57,1.3,85.8,2.5c9.7,0.4,26.8,5.4,34.9-2.1c9.8-9.1,4.3-32.5,4.8-44.2
		C1433.7,6249,1433.7,6231.7,1426,6216.8z"/>
	<path d="M1372.9,6038c-5.5-4.6-1.7-16.2,8.8-26.6c15.4-15,0-17.7-139.8-14.9c-87,1.8-160,1.6-162.5,0.2c-3.7-2-4.1-10.3-1.6-19.4
		c3.6-12.5,38.1-15.5,197.4-15.8c106.2-0.2,194.9,3.7,196.6,9.5c5.4,18.2-13.6,38.5-52.8,57.4
		C1396.2,6039.4,1378.4,6042.6,1372.9,6038z"/>
	<path d="M1356.5,5810.2c-121.4,65.2-124,67-143.6,67.6c-22.5,1.5-26.2-11-23.6-69.1c3.5-65.7-0.4-71.8-51.7-69.1
		c-50.3,2.4-67.4-6.1-56.6-26c4.7-8.7,23.5-12.2,58.9-12.2l51.9-0.8l-2.2-28.6c-2.4-22.2,1.2-27.5,17.7-28.2
		c16.5-0.7,22.6,5.8,27.5,29.4l6.6,29.3l112-1.9c99.6-1.4,111.8,1.3,117.5,20.4C1478.2,5746,1478.8,5744.7,1356.5,5810.2z
		 M1390.1,5741.1c-46.6-0.8-93.1,3-139.7,3.3c-0.1,0-0.2,0.1-0.3,0.1c-2.5-1.9-6.4-1-7.8,2.5c-0.6,1.5-1,3.1-1.5,4.6
		c-12.1,14.5-7.7,47-7.5,62.8c0,2.3,1.6,3.8,3.4,4.5c0.6,2.5,3.4,4.1,6.2,3.6c23.2-3.7,43.9-16.1,64.1-27.4
		c28-15.8,56.7-30.6,85.6-44.6C1397.3,5748.2,1394.8,5741.2,1390.1,5741.1z"/>
	<path d="M1381.8,5575.4c-51.2-0.5-96.2-4.8-101.1-10.7c-3.6-5.2-5.7-26.5-5.4-46.4c0.7-29.4-3.7-40.6-22-60.2
		c-12.2-13.1-31.1-24.1-39.9-25.7c-24.3-1.1-75.7,15.2-87.6,28c-11.5,13.8-15.7,63.1-6.9,92.8c5.4,18.2,2.4,22.2-15,23.2
		c-19.6,0.6-23.2-4.6-31.6-46.9c-12.3-66.2,13.4-106.2,84-128.2c46.9-13.9,54.5-13,101.4,11.7c47.5,26.6,50.2,28.9,58.1,76.6
		l8.2,48.7l49,0.1c27.2,0.3,51.3-2.7,54.6-5.7c3.3-3.1,3.5-30.3,1.7-61c-3.8-55.2,2.2-66.4,32-57.5c13.5,3.3,15.5,17.3,16.3,79.7
		c0.8,41.5,0.6,76-0.8,78.4C1475.1,5573.8,1432.7,5574.9,1381.8,5575.4z"/>
	<path d="M1386.7,5289.2c-21.1-11.5-22.3-22.6-3.2-28.3c43.1-12.8-63.2-19.9-275.3-18.5c-14.5,0.1-35.5-24.9-24-28.3
		c8.6-2.6,384.4-0.3,389.3,2.4c13.7,7.4,0.6,37.4-20.6,49.9c-13.5,7.1-30.3,17.3-37.1,22.5
		C1407.8,5293.4,1395.4,5293.9,1386.7,5289.2z"/>
</g>
</svg>
