<?xml version="1.0" encoding="utf-8"?>
<!-- Generator: Adobe Illustrator 23.0.3, SVG Export Plug-In . SVG Version: 6.00 Build 0)  -->
<svg version="1.1" id="Layer_1" xmlns="http://www.w3.org/2000/svg" xmlns:xlink="http://www.w3.org/1999/xlink" x="0px" y="0px"
	 viewBox="0 0 324.3 252" style="enable-background:new 0 0 324.3 252;" xml:space="preserve">
<style type="text/css">
	.st0{fill:#ADADAD;}
</style>
<g transform="translate(0.000000,721.000000) scale(0.100000,-0.100000)">
	<path class="st0" d="M208,7209.7c0,3.4-0.1,6.8-0.1,10.2c-36-6.1-72.6-10.1-109.7-11.7c3.9-273.3,8.5-670.9,14-1204.8
		c4.5-413.9,10.3-950.1,12.8-1191.5c0.6-48.1,1.3-100.3,2-154.9c36.1-0.6,72.2-1.7,108.2-3.4c-5,269.5-7.4,502.6-3.2,504.8
		c3.7,2,2868.5,29.5,2885.4,26.6c4.1-0.2,11.1-113.7,13.6-253c3.7-138.6,7.8-258.6,9.9-265.5c6.9-26,105.2-32.2,131.9-8.8
		c9.8,8.6,12.5,88,9.5,271.2c-1,106.8,0.2,199.6,3.4,240.8c-3.6,24.1-5.5,48.3-5.5,72.3c0,13.7,0.7,27.3,1.8,40.7
		c-1.1,13.1-1.8,26.2-1.8,39.2c0,7.6,0.3,15.2,0.6,22.7c-0.6,0.3-1.1,0.5-1.1,0.8c-2,3.7-3.8,120.9-4.1,260.6l-1,253.5l-38,9.1
		c-63.2,15.6-95.2,9.4-104.3-21.2c-4.5-15.3-6.5-134.6-6.2-267c0.6-131.5-1.4-240.3-3.9-241.6c-5-2.7-2858.1-29.4-2880.3-27
		c-10.2,0.9-15.2,177.4-20.4,659.3c-3.1,362.4-4.9,658.9-3.6,659.5c5.9,2.4,2880,26.1,2888.6,23.5c5.8-1.7,10.1-46.8,11.3-99.2
		c0.6-177.3,5.1-207.8,29.1-214.9c34.5-10.2,88.1-5.2,102.2,10.4c23.2,25.4,17.4,822.1-6.3,840.6c-5.9,4.9-36.3,7.6-66.7,7.2
		c-40.8-0.4-58-5.8-64.2-19.6c-4.1-10.3-5.6-96.3-2.7-191.9c2.9-95.7,1.2-175.4-2.5-177.4c-9.7-4.4-2860.2-40.3-2880-36.5
		C216.7,6774.7,211.4,6904.5,208,7209.7z M3153.4,5265c3.8-1.1,4.2-3.3,1.5-5.6c-5.9-2.4-2886.8-31.4-2938.1-28.7
		c-126.5,6.2,191,11.2,1458.5,22.7C2483.7,5261.1,3148.6,5266.4,3153.4,5265z"/>
	<path class="st0" d="M-90.1,7208.9c1.9-180.7,1.8-336,0.6-402.8c6.2-31.8,9.5-63.8,9.5-95.6c0-3.5-0.2-7-0.2-10.4
		c6.7-33,10.2-66.4,10.2-99.4c0-35-3.6-68.9-10.4-101.9c5.6-307.3,13.7-1072.2,12.5-1187.7c1.3-7.7,2.1-15.7,2.1-24.3
		c0-1.6-0.2-3.1-0.2-4.7c2.2-9.8,3.5-20.3,3.5-31.6c0-10.2-1-19.8-2.8-28.8c1.3-8.7,2.4-17.4,3.2-26.1c2.9-7.1,5.2-14.6,6.8-22.7
		c5.8-11.8,9.8-25.2,11.6-40.2c5.2-9.7,9.2-20.5,11.6-32.5l2.7,0l2.5-26.8c0.8-10.4,0.8-21.6,0.3-28.3c0.3-4.1,0.6-8.3,0.6-12.6
		c0-7.6-0.7-14.8-1.7-21.7c1-6.8,1.7-13.8,1.7-21.2c0-4.4-0.4-8.5-0.7-12.6c2.5-10.4,4-21.5,4-33.6c0-7-0.6-13.5-1.4-19.9
		c0.8-6.3,1.4-12.8,1.4-19.7c0-11.7-1.4-22.5-3.8-32.6c0.9-25.3,2.4-107.4,3.9-215.7c23.3,0.8,46.5,1.4,69.8,1.6
		c-2.3,180.4-4,309.6-4.3,324.7c-0.5,23.1-6.3,552-13.2,1176c-5.1,406-9.7,798.4-12.8,1050.9c-5.6,0.3-11.2,0.5-16.9,1
		c-19.3,0.1-38.3,1.4-57.1,3.4C-68.1,7211.8-79.1,7210.3-90.1,7208.9z"/>
	<path class="st0" d="M833.1,6110c-2.6-8.6-3.4-95.9-3.3-193.9c0.4-97,0.3-178.3,0-179.2c0.7-1.2,35.5-3.2,78-4.3
		c101.1-3.9,140.3,15.8,159,79c11.1,37.4,10.3,52.2-6.6,83.2c-10.8,19.9-24.1,38.4-28.9,39.8c-6.7,2-2.8,18.6,7.4,42.6
		c24.4,54.2,15.5,101.7-25.3,129.4c-25.9,18.1-41.8,20.7-103.2,21.2C855.9,6127.2,835.8,6122.7,833.1,6110z M1015.9,5822.5
		c-9.6-25.3-19.8-31.6-50.6-37.1c-81.9-12.2-82.8-12-85.7,55.6c-3.6,79.2-6.3,73.7,31.9,76
		C996.1,5921.1,1039.5,5881.2,1015.9,5822.5z M971.7,6083.8c28.4-14.7,38-57.5,24-85.2c-7.3-14.4-21.6-22.8-37.3-24.8
		c-12.4-1.6-24.1-0.9-36.5-4c-11.7-3-21.9-5.9-34-6c-2.5-3-7.8-3.2-8.5,1.4c-3.9,28.7-1.3,57-2.5,85.8c-0.4,9.7-5.4,26.8,2.1,34.9
		c9.1,9.8,32.5,4.3,44.2,4.8C939.5,6091.4,956.8,6091.5,971.7,6083.8z"/>
	<path class="st0" d="M1150.6,6030.6c4.6-5.5,16.2-1.7,26.6,8.8c15,15.4,17.7,0,14.9-139.8c-1.8-87-1.6-160-0.2-162.5
		c2-3.7,10.3-4.1,19.4-1.6c12.5,3.6,15.5,38.1,15.8,197.4c0.2,106.2-3.7,194.9-9.5,196.6c-18.2,5.4-38.5-13.6-57.4-52.8
		C1149.2,6054,1146,6036.1,1150.6,6030.6z"/>
	<path class="st0" d="M1378.3,6014.3c-65.2-121.4-67-124-67.6-143.6c-1.5-22.5,11-26.2,69.1-23.6c65.7,3.5,71.8-0.4,69.1-51.7
		c-2.4-50.3,6.1-67.4,26-56.6c8.7,4.7,12.2,23.5,12.2,58.9l0.8,51.9l28.6-2.2c22.2-2.4,27.5,1.2,28.2,17.7
		c0.7,16.5-5.8,22.6-29.4,27.5l-29.3,6.6l1.9,112c1.4,99.6-1.3,111.8-20.4,117.5C1442.5,6135.9,1443.8,6136.6,1378.3,6014.3z
		 M1447.4,6047.8c0.8-46.6-3-93.1-3.3-139.7c0-0.1-0.1-0.2-0.1-0.3c1.9-2.5,1-6.4-2.5-7.8c-1.5-0.6-3.1-1-4.6-1.5
		c-14.5-12.1-47-7.7-62.8-7.5c-2.3,0-3.8,1.6-4.5,3.4c-2.5,0.6-4.1,3.4-3.6,6.2c3.7,23.2,16.1,43.9,27.4,64.1
		c15.8,28,30.6,56.7,44.6,85.6C1440.3,6055,1447.3,6052.5,1447.4,6047.8z"/>
	<path class="st0" d="M1613.2,6039.6c0.5-51.2,4.8-96.2,10.7-101.1c5.2-3.6,26.5-5.7,46.4-5.4c29.4,0.7,40.6-3.7,60.2-22
		c13.1-12.2,24.1-31.1,25.7-39.9c1.1-24.3-15.2-75.7-28-87.6c-13.8-11.5-63.1-15.7-92.8-6.9c-18.2,5.4-22.2,2.4-23.2-15
		c-0.6-19.6,4.6-23.2,46.9-31.6c66.2-12.3,106.2,13.4,128.2,84c13.9,46.9,13,54.5-11.7,101.4c-26.6,47.5-28.9,50.2-76.6,58.1
		l-48.7,8.2l-0.1,49c-0.3,27.2,2.7,51.3,5.7,54.6s30.3,3.5,61,1.7c55.2-3.8,66.4,2.2,57.5,32c-3.3,13.5-17.3,15.5-79.7,16.3
		c-41.5,0.8-76,0.6-78.4-0.8C1614.8,6132.9,1613.7,6090.5,1613.2,6039.6z"/>
	<path class="st0" d="M1899.4,6044.5c11.5-21.1,22.6-22.3,28.3-3.2c12.8,43.1,19.9-63.2,18.5-275.3c-0.1-14.5,24.9-35.5,28.3-24
		c2.6,8.6,0.3,384.4-2.4,389.3c-7.4,13.7-37.4,0.6-49.9-20.6c-7.1-13.5-17.3-30.3-22.5-37.1
		C1895.2,6065.5,1894.6,6053.2,1899.4,6044.5z"/>
</g>
</svg>
