<?xml version="1.0" encoding="utf-8"?>
<!-- Generator: Adobe Illustrator 23.0.3, SVG Export Plug-In . SVG Version: 6.00 Build 0)  -->
<svg version="1.1" id="Layer_1" xmlns="http://www.w3.org/2000/svg" xmlns:xlink="http://www.w3.org/1999/xlink" x="0px" y="0px"
	 viewBox="0 0 1366 1024" style="enable-background:new 0 0 1366 1024;" xml:space="preserve">
<style type="text/css">
	.st0{fill:none;stroke:#000000;stroke-miterlimit:10;}
	.st1{clip-path:url(#SVGID_2_);}
	.st2{fill-opacity:0;stroke:#000000;stroke-miterlimit:10;stroke-opacity:0;}
	.st3{fill:#FFFFFF;stroke:#000000;stroke-miterlimit:10;}
	.st4{opacity:0.5;fill:url(#SVGID_3_);stroke:#000000;stroke-miterlimit:10;stroke-opacity:0;enable-background:new    ;}
	.st5{stroke:#000000;stroke-miterlimit:10;stroke-opacity:0;}
	.st6{fill:#FFFFFF;stroke:#000000;stroke-miterlimit:10;stroke-opacity:0;}
	.st7{fill:url(#SVGID_4_);stroke:#000000;stroke-width:0.3;stroke-miterlimit:10;}
	.st8{fill:#0D748C;stroke:#000000;stroke-width:0.5;stroke-miterlimit:10;}
	.st9{opacity:0.6;stroke:#000000;stroke-miterlimit:10;stroke-opacity:0;enable-background:new    ;}
	.st10{opacity:0.3;stroke:#000000;stroke-miterlimit:10;stroke-opacity:0;enable-background:new    ;}
	.st11{opacity:0.27;stroke:#000000;stroke-miterlimit:10;stroke-opacity:0;enable-background:new    ;}
	.st12{fill:url(#SVGID_5_);stroke:#000000;stroke-width:0.3;stroke-miterlimit:10;}
	.st13{fill:url(#SVGID_6_);stroke:#000000;stroke-width:0.3;stroke-miterlimit:10;}
	.st14{fill:url(#SVGID_7_);stroke:#000000;stroke-width:0.3;stroke-miterlimit:10;}
	.st15{fill:url(#SVGID_8_);stroke:#000000;stroke-width:0.3;stroke-miterlimit:10;}
	.st16{fill:url(#SVGID_9_);stroke:#000000;stroke-width:0.3;stroke-miterlimit:10;}
	.st17{fill:url(#SVGID_10_);stroke:#000000;stroke-width:0.3;stroke-miterlimit:10;}
	.st18{fill:none;}
	.st19{font-family:'Helvetica';}
	.st20{font-size:78px;}
	.st21{font-size:51px;}
</style>
<g transform="translate(0,0)">
	<g transform="translate(0.5,0.5) matrix(1,0,0,1,38,15)">
		<g>
			<g transform="translate(0,0) scale(0.15,3.06)">
				<g>
					<path d="M61.7-5.1h96.1l0,0v334.6l0,0H61.7l0,0V-5.1L61.7-5.1z"/>
					<g transform="scale(6.666666666666667,0.32679738562091504)">
						<path class="st0" d="M9.3-15.5h14.1l0,0v1024l0,0H9.3l0,0V-15.5L9.3-15.5z"/>
					</g>
				</g>
			</g>
		</g>
	</g>
	<g transform="translate(0.5,0.5) matrix(1,0,0,1,45,35)">
		<g>
			<g transform="translate(0,0) scale(5.47,0.15)">
				<g>
					<path d="M3.1,227h225.8l0,0v141.1l0,0H3.1l0,0V227L3.1,227z"/>
					<g transform="scale(0.18281535648994515,6.666666666666667)">
						<path class="st0" d="M16.8,33.9h1235l0,0V55l0,0H16.8l0,0V33.9L16.8,33.9z"/>
					</g>
				</g>
			</g>
		</g>
	</g>
	<g transform="translate(0.5,0.5) matrix(1,0,0,1,45,292)">
		<g>
			<g transform="translate(0,0) scale(5.47,0.15)">
				<g>
					<path d="M3.1,4275h225.8l0,0v141.1l0,0H3.1l0,0V4275L3.1,4275z"/>
					<g transform="scale(0.18281535648994515,6.666666666666667)">
						<path class="st0" d="M16.8,641.2h1235l0,0v21.1l0,0H16.8l0,0V641.2L16.8,641.2z"/>
					</g>
				</g>
			</g>
		</g>
	</g>
	<g transform="translate(0.5,0.5) matrix(1,0,0,1,589,15)">
		<g>
			<g transform="translate(0,0) scale(0.16,1.01)">
				<g>
					<path d="M4429.5-15.3h94.3l0,0v334.6l0,0h-94.3l0,0V-15.3L4429.5-15.3z"/>
					<g transform="scale(6.25,0.9900990099009901)">
						<path class="st0" d="M708.7-15.5h15.1l0,0v338l0,0h-15.1l0,0V-15.5L708.7-15.5z"/>
					</g>
				</g>
			</g>
		</g>
	</g>
	<g transform="translate(0.5,0.5) matrix(1,0,0,1,589,166)">
		<g>
			<g transform="translate(0,0) scale(0.16,1.54)">
				<g>
					<path d="M4428.9,221.6h94.5l0,0v334.6l0,0h-94.5l0,0V221.6L4428.9,221.6z"/>
					<g transform="scale(6.25,0.6493506493506493)">
						<path class="st0" d="M708.7,341.4h15.1l0,0v515.3l0,0h-15.1l0,0V341.4L708.7,341.4z"/>
					</g>
				</g>
			</g>
		</g>
	</g>
	<g transform="translate(0,0) matrix(1,0,0,1,48,230)">
		<g>
			<g>
				<g>
					<g>
						<defs>
							<rect id="SVGID_1_" x="19.9" y="491.4" width="286.1" height="195.1"/>
						</defs>
						<clipPath id="SVGID_2_">
							<use xlink:href="#SVGID_1_"  style="overflow:visible;"/>
						</clipPath>
						<g class="st1">
							<g transform="translate(0,0) scale(1.2608695652173916,1.268591426071741)">
								<g>
									<g>
										<path class="st2" d="M15.8,387.4h227l0,0v153.7l0,0H15.9l0,0L15.8,387.4L15.8,387.4z"/>
									</g>
									<g>
										<path class="st3" d="M21.5,395.1h215.9l0,0V535l0,0H21.5l0,0V395.1L21.5,395.1z"/>
									</g>
								</g>
								<g>
									<g>
										<path class="st2" d="M15.8,386.5h227l0,0v153.7l0,0H15.9l0,0L15.8,386.5L15.8,386.5z"/>
									</g>
									<g>
										
											<linearGradient id="SVGID_3_" gradientUnits="userSpaceOnUse" x1="139.2667" y1="232.9398" x2="317.5762" y2="411.2492" gradientTransform="matrix(2.0045 0 0 -2.0417 -238.4906 1029.5054)">
											<stop  offset="0" style="stop-color:#FFFFFF"/>
											<stop  offset="0.1742" style="stop-color:#000000"/>
											<stop  offset="0.3708" style="stop-color:#FFFFFF"/>
											<stop  offset="0.4663" style="stop-color:#ADADAD"/>
											<stop  offset="0.7472" style="stop-color:#585858"/>
											<stop  offset="0.8427" style="stop-color:#FFFFFF"/>
											<stop  offset="1" style="stop-color:#191919"/>
										</linearGradient>
										<path class="st4" d="M237.8,394.1h-217v139.7l217,0.5V394.1z"/>
									</g>
								</g>
							</g>
						</g>
					</g>
				</g>
			</g>
		</g>
	</g>
	<g transform="translate(0,0) matrix(-1,1.2246467991473532e-16,-1.2246467991473532e-16,-1,586.6363636363636,66.07499999999995)">
		<g>
			<g transform="translate(0,0) scale(1.319485400693729,1.2940253814344786)">
				<g>
					<g>
						<path class="st5" d="M-531.8-75.4h12.8l0,0v30.9l0,0h-12.8l0,0V-75.4L-531.8-75.4z"/>
					</g>
					<g>
						<path class="st5" d="M-324.8-75.4h12.8l0,0v30.9l0,0h-12.8l0,0V-75.4L-324.8-75.4z"/>
					</g>
					<g>
						<path class="st6" d="M-510.9-52.8h178.2l0,0v9.4l0,0h-178.2l0,0L-510.9-52.8L-510.9-52.8z"/>
					</g>
					<g>
						
							<linearGradient id="SVGID_4_" gradientUnits="userSpaceOnUse" x1="139.6917" y1="-1505.8027" x2="139.6917" y2="-1512.6587" gradientTransform="matrix(-2.2972 0 0 2.167 -100.9471 3224.2185)">
							<stop  offset="0" style="stop-color:#FFFFFF"/>
							<stop  offset="1" style="stop-color:#000000"/>
						</linearGradient>
						<path class="st7" d="M-515.8-45.6h187.9l0,0v6.8l0,0h-187.9l0,0V-45.6L-515.8-45.6z"/>
					</g>
				</g>
				<g>
					<g>
						<path class="st8" d="M-530.7-72.1h216.9l0,0v24.4l0,0h-216.9l0,0V-72.1L-530.7-72.1z"/>
					</g>
				</g>
				<g>
					<g>
						<path class="st9" d="M-530.7-72.1h216.6l0,0v6.1l0,0h-216.6l0,0V-72.1L-530.7-72.1z"/>
					</g>
					<g>
						<path class="st10" d="M-530.6-54.4H-314l0,0v6.1l0,0h-216.6l0,0V-54.4L-530.6-54.4z"/>
					</g>
					<g>
						<path class="st5" d="M-332.9-47.2h6.1l0,0v9.9l0,0h-6.1l0,0V-47.2L-332.9-47.2z"/>
					</g>
					<g>
						<path class="st5" d="M-516.7-47.2h6.1l0,0v9.9l0,0h-6.1l0,0V-47.2L-516.7-47.2z"/>
					</g>
					<g transform="matrix(1,-0.0031,0.0031,1,-0.0189,0.0133)">
						<path class="st11" d="M-531.1-74.2h11.3l0,0v25.4l0,0h-11.3l0,0V-74.2L-531.1-74.2z"/>
					</g>
					<g>
						<path class="st11" d="M-324.8-72.8h11.3l0,0v25l0,0h-11.3l0,0V-72.8L-324.8-72.8z"/>
					</g>
				</g>
			</g>
		</g>
	</g>
	<g transform="translate(0,0) matrix(-1,1.2246467991473532e-16,-1.2246467991473532e-16,-1,455.6363636363636,66.21250000000006)">
		<g>
			<g transform="translate(0,0) scale(1.3394776037345433,1.3136318266077283)">
				<g>
					<g>
						<path class="st2" d="M-397.6-79.6h227.1l0,0v46.9l0,0h-227.1l0,0V-79.6L-397.6-79.6z"/>
					</g>
					<g>
						<path class="st5" d="M-394.2-75.3h12.8l0,0v31.4l0,0h-12.8l0,0V-75.3L-394.2-75.3z"/>
					</g>
					<g>
						<path class="st5" d="M-186.6-75.3h12.8l0,0v31.4l0,0h-12.8l0,0V-75.3L-186.6-75.3z"/>
					</g>
					<g>
						<path class="st6" d="M-373.2-52.2h178.6l0,0v9.5l0,0h-178.6l0,0V-52.2L-373.2-52.2z"/>
					</g>
					<g>
						
							<linearGradient id="SVGID_5_" gradientUnits="userSpaceOnUse" x1="4.1188" y1="-1465.8055" x2="4.1188" y2="-1472.7808" gradientTransform="matrix(-2.4033 0 0 2.2668 -274.1512 3284.8364)">
							<stop  offset="0" style="stop-color:#FFFFFF"/>
							<stop  offset="1" style="stop-color:#000000"/>
						</linearGradient>
						<path class="st12" d="M-378.2-44.9h188.3l0,0v6.9l0,0h-188.3l0,0V-44.9L-378.2-44.9z"/>
					</g>
				</g>
				<g>
					<g>
						<path class="st2" d="M-397.6-79.6h226.9l0,0v46.9l0,0h-226.9l0,0V-79.6L-397.6-79.6z"/>
					</g>
					<g>
						<path class="st8" d="M-393-71.9h217.4l0,0v24.8l0,0H-393l0,0V-71.9L-393-71.9z"/>
					</g>
				</g>
				<g>
					<g>
						<path class="st2" d="M-395.7-79.5h223.1l0,0v45.7l0,0h-223.1l0,0V-79.5L-395.7-79.5z"/>
					</g>
					<g>
						<path class="st9" d="M-393-71.9h217.2l0,0v6.1l0,0H-393l0,0V-71.9L-393-71.9z"/>
					</g>
					<g>
						<path class="st10" d="M-393-53.9h217.2l0,0v6.1l0,0H-393l0,0V-53.9L-393-53.9z"/>
					</g>
					<g>
						<path class="st5" d="M-194.8-46.6h6.1l0,0v10.1l0,0h-6.1l0,0V-46.6L-194.8-46.6z"/>
					</g>
					<g>
						<path class="st5" d="M-379-46.6h6.1l0,0v10.1l0,0h-6.1l0,0V-46.6L-379-46.6z"/>
					</g>
					<g transform="matrix(1,-0.0031,0.0031,1,-0.0189,0.0133)">
						<path class="st11" d="M-393.4-73.5h11.3l0,0v26l0,0h-11.3l0,0V-73.5L-393.4-73.5z"/>
					</g>
					<g>
						<path class="st11" d="M-186.6-72.6h11.3l0,0v25.4l0,0h-11.3l0,0V-72.6L-186.6-72.6z"/>
					</g>
				</g>
			</g>
		</g>
	</g>
</g>
<path class="st2" d="M1291.1,920H992.3"/>
<path class="st2" d="M992.3,860.4h298.8"/>
<g>
	<path class="st5" d="M996.7,865.9h16.8l0,0v40l0,0h-16.8l0,0V865.9L996.7,865.9z"/>
</g>
<g>
	<path class="st5" d="M1269.8,865.9h16.8l0,0v40l0,0h-16.8l0,0V865.9L1269.8,865.9z"/>
</g>
<g>
	<path class="st6" d="M1024.3,895.2h235.2l0,0v12.1l0,0h-235.2l0,0V895.2L1024.3,895.2z"/>
</g>
<g>
	
		<linearGradient id="SVGID_6_" gradientUnits="userSpaceOnUse" x1="647.5417" y1="881.0301" x2="647.5417" y2="887.8862" gradientTransform="matrix(1.3195 0 0 -1.294 287.3688 2053.4529)">
		<stop  offset="0" style="stop-color:#FFFFFF"/>
		<stop  offset="1" style="stop-color:#000000"/>
	</linearGradient>
	<path class="st13" d="M1017.9,904.6h247.8l0,0v8.8l0,0h-247.8l0,0L1017.9,904.6L1017.9,904.6z"/>
</g>
<path class="st2" d="M1290.9,920H992.3"/>
<path class="st2" d="M992.3,860.3H1291"/>
<g>
	<path class="st8" d="M998.2,870.1h286.1l0,0v31.5l0,0H998.2l0,0V870.1L998.2,870.1z"/>
</g>
<path class="st2" d="M1291.1,920H992.3"/>
<path class="st2" d="M992.3,860h298.8"/>
<g>
	<path class="st9" d="M998.2,870.1H1284l0,0v7.9l0,0H998.2l0,0V870.1L998.2,870.1z"/>
</g>
<g>
	<path class="st10" d="M998.3,893.1h285.9l0,0v7.9l0,0H998.3l0,0V893.1L998.3,893.1z"/>
</g>
<g>
	<path class="st5" d="M1259.1,902.3h8.1l0,0v12.8l0,0h-8.1l0,0V902.3L1259.1,902.3z"/>
</g>
<g>
	<path class="st5" d="M1016.6,902.3h8.1l0,0v12.8l0,0h-8.1l0,0V902.3L1016.6,902.3z"/>
</g>
<g transform="matrix(1,-0.0031,0.0031,1,-0.0189,0.0133)">
	<path class="st11" d="M994.8,872.6h14.9l0,0v33l0,0h-14.9l0,0V872.6L994.8,872.6z"/>
</g>
<g>
	<path class="st11" d="M1270,869.3h14.9l0,0v32.4l0,0H1270l0,0V869.3L1270,869.3z"/>
</g>
<path class="st2" d="M680.1,920H381.3"/>
<path class="st2" d="M381.3,860.4h298.8"/>
<g>
	<path class="st5" d="M385.7,865.9h16.8l0,0v40l0,0h-16.8l0,0V865.9L385.7,865.9z"/>
</g>
<g>
	<path class="st5" d="M658.8,865.9h16.8l0,0v40l0,0h-16.8l0,0V865.9L658.8,865.9z"/>
</g>
<g>
	<path class="st6" d="M413.3,895.2h235.2l0,0v12.1l0,0H413.3l0,0V895.2L413.3,895.2z"/>
</g>
<g>
	
		<linearGradient id="SVGID_7_" gradientUnits="userSpaceOnUse" x1="184.3359" y1="881.0301" x2="184.3359" y2="887.8862" gradientTransform="matrix(1.3195 0 0 -1.294 287.3688 2053.4529)">
		<stop  offset="0" style="stop-color:#FFFFFF"/>
		<stop  offset="1" style="stop-color:#000000"/>
	</linearGradient>
	<path class="st14" d="M406.7,904.6h247.8l0,0v8.8l0,0H406.7l0,0V904.6L406.7,904.6z"/>
</g>
<path class="st2" d="M679.9,920H381.3"/>
<path class="st2" d="M381.3,860.3H680"/>
<g>
	<path class="st8" d="M387.2,870.1h286.1l0,0v31.5l0,0H387.2l0,0V870.1L387.2,870.1z"/>
</g>
<path class="st2" d="M680.1,920H381.3"/>
<path class="st2" d="M381.3,860h298.8"/>
<g>
	<path class="st9" d="M387.2,870.1h285.7l0,0v7.9l0,0H387.2l0,0V870.1L387.2,870.1z"/>
</g>
<g>
	<path class="st10" d="M387.2,893.1h285.9l0,0v7.9l0,0H387.2l0,0V893.1L387.2,893.1z"/>
</g>
<g>
	<path class="st5" d="M648,902.3h8.1l0,0v12.8l0,0H648l0,0V902.3L648,902.3z"/>
</g>
<g>
	<path class="st5" d="M405.6,902.3h8.1l0,0v12.8l0,0h-8.1l0,0V902.3L405.6,902.3z"/>
</g>
<g transform="matrix(1,-0.0031,0.0031,1,-0.0189,0.0133)">
	<path class="st11" d="M383.6,870.7h14.9l0,0v33l0,0h-14.9l0,0V870.7L383.6,870.7z"/>
</g>
<g>
	<path class="st11" d="M658.9,869.3h14.9l0,0v32.4l0,0h-14.9l0,0V869.3L658.9,869.3z"/>
</g>
<path class="st2" d="M682.6,170.8h-304l0,0v-61.6l0,0h304"/>
<g>
	<path class="st5" d="M678.2,165.1h-17.1l0,0v-41.4l0,0h17.1l0,0V165.1L678.2,165.1z"/>
</g>
<g>
	<path class="st5" d="M400.1,165.1H383l0,0v-41.4l0,0h17.1l0,0V165.1L400.1,165.1z"/>
</g>
<g>
	<path class="st6" d="M650.1,134.8H410.7l0,0v-12.5l0,0H650l0,0L650.1,134.8L650.1,134.8z"/>
</g>
<g>
	
		<linearGradient id="SVGID_8_" gradientUnits="userSpaceOnUse" x1="1463.6459" y1="830.5372" x2="1463.6459" y2="837.5125" gradientTransform="matrix(-1.3395 0 0 1.3136 2491.0535 -975.0372)">
		<stop  offset="0" style="stop-color:#FFFFFF"/>
		<stop  offset="1" style="stop-color:#000000"/>
	</linearGradient>
	<path class="st15" d="M656.6,125.2H404.4l0,0V116l0,0h252.2l0,0V125.2L656.6,125.2z"/>
</g>
<path class="st2" d="M682.6,170.8H378.7l0,0v-61.6l0,0h303.9"/>
<g>
	<path class="st8" d="M676.6,160.7H385.3l0,0v-32.6l0,0h291.3l0,0V160.7L676.6,160.7z"/>
</g>
<path class="st2" d="M680.2,170.5H381.4l0,0v-60l0,0h298.8"/>
<g>
	<path class="st9" d="M676.6,160.7H385.7l0,0v-8.1l0,0h290.9l0,0V160.7L676.6,160.7z"/>
</g>
<g>
	<path class="st10" d="M676.6,137H385.7l0,0v-8.1l0,0h290.9l0,0V137L676.6,137z"/>
</g>
<g>
	<path class="st5" d="M411.1,127.4h-8.2l0,0v-13.3l0,0h8.2l0,0V127.4L411.1,127.4z"/>
</g>
<g>
	<path class="st5" d="M657.9,127.4h-8.2l0,0v-13.3l0,0h8.2l0,0V127.4L657.9,127.4z"/>
</g>
<g transform="matrix(1,-0.0031,0.0031,1,-0.0189,0.0133)">
	<path class="st11" d="M676.9,163.3h-15.2l0,0v-34l0,0h15.2l0,0V163.3L676.9,163.3z"/>
</g>
<g>
	<path class="st11" d="M400,161.5h-15.2l0,0V128l0,0H400l0,0V161.5L400,161.5z"/>
</g>
<path class="st2" d="M377.1,170.8h-304l0,0v-61.6l0,0h304"/>
<g>
	<path class="st5" d="M372.5,165.1h-17.1l0,0v-41.4l0,0h17.1l0,0V165.1L372.5,165.1z"/>
</g>
<g>
	<path class="st5" d="M94.6,165.1H77.5l0,0v-41.4l0,0h17.1l0,0V165.1L94.6,165.1z"/>
</g>
<g>
	<path class="st6" d="M344.5,134.8H105.2l0,0v-12.5l0,0h239.3l0,0V134.8L344.5,134.8z"/>
</g>
<g>
	
		<linearGradient id="SVGID_9_" gradientUnits="userSpaceOnUse" x1="1691.7159" y1="830.5372" x2="1691.7159" y2="837.5125" gradientTransform="matrix(-1.3395 0 0 1.3136 2491.0535 -975.0372)">
		<stop  offset="0" style="stop-color:#FFFFFF"/>
		<stop  offset="1" style="stop-color:#000000"/>
	</linearGradient>
	<path class="st16" d="M351.1,125.2H98.9l0,0V116l0,0h252.2l0,0V125.2L351.1,125.2z"/>
</g>
<path class="st2" d="M377.1,170.8H73.2l0,0v-61.6l0,0h303.9"/>
<g>
	<path class="st8" d="M371,160.7H79.8l0,0v-32.6l0,0H371l0,0V160.7L371,160.7z"/>
</g>
<path class="st2" d="M374.7,170.5H75.9l0,0v-60l0,0h298.8"/>
<g>
	<path class="st9" d="M371,160.7H80.2l0,0v-8.1l0,0H371l0,0V160.7L371,160.7z"/>
</g>
<g>
	<path class="st10" d="M371,137H80l0,0v-8.1l0,0h290.9l0,0v8.1H371z"/>
</g>
<g>
	<path class="st5" d="M105.6,127.4h-8.2l0,0v-13.3l0,0h8.2l0,0V127.4L105.6,127.4z"/>
</g>
<g>
	<path class="st5" d="M352.3,127.4h-8.2l0,0v-13.3l0,0h8.2l0,0V127.4L352.3,127.4z"/>
</g>
<g transform="matrix(1,-0.0031,0.0031,1,-0.0189,0.0133)">
	<path class="st11" d="M371.4,162.4h-15.2l0,0v-34l0,0h15.2l0,0V162.4L371.4,162.4z"/>
</g>
<g>
	<path class="st11" d="M94.4,161.5H79.2l0,0V128l0,0h15.2l0,0L94.4,161.5L94.4,161.5z"/>
</g>
<path class="st2" d="M985.6,920H686.8"/>
<path class="st2" d="M686.8,860.4h298.8"/>
<g>
	<path class="st5" d="M691.2,865.9H708l0,0v40l0,0h-16.8l0,0V865.9L691.2,865.9z"/>
</g>
<g>
	<path class="st5" d="M964.3,865.9h16.8l0,0v40l0,0h-16.8l0,0V865.9L964.3,865.9z"/>
</g>
<g>
	<path class="st6" d="M718.8,895.2H954l0,0v12.1l0,0H718.8l0,0V895.2L718.8,895.2z"/>
</g>
<g>
	
		<linearGradient id="SVGID_10_" gradientUnits="userSpaceOnUse" x1="415.863" y1="881.0301" x2="415.863" y2="887.8862" gradientTransform="matrix(1.3195 0 0 -1.294 287.3688 2053.4529)">
		<stop  offset="0" style="stop-color:#FFFFFF"/>
		<stop  offset="1" style="stop-color:#000000"/>
	</linearGradient>
	<path class="st17" d="M712.2,904.6H960l0,0v8.8l0,0H712.2l0,0V904.6L712.2,904.6z"/>
</g>
<path class="st2" d="M985.4,920H686.8"/>
<path class="st2" d="M686.8,860.3h298.7"/>
<g>
	<path class="st8" d="M692.7,870.1h286.1l0,0v31.5l0,0H692.7l0,0V870.1L692.7,870.1z"/>
</g>
<path class="st2" d="M985.6,920H686.8"/>
<path class="st2" d="M686.8,860h298.8"/>
<g>
	<path class="st9" d="M692.7,870.1h285.7l0,0v7.9l0,0H692.7l0,0V870.1L692.7,870.1z"/>
</g>
<g>
	<path class="st10" d="M692.7,893.1h285.9l0,0v7.9l0,0H692.7l0,0V893.1L692.7,893.1z"/>
</g>
<g>
	<path class="st5" d="M953.5,902.3h8.1l0,0v12.8l0,0h-8.1l0,0V902.3L953.5,902.3z"/>
</g>
<g>
	<path class="st5" d="M711.1,902.3h8.1l0,0v12.8l0,0h-8.1l0,0V902.3L711.1,902.3z"/>
</g>
<g transform="matrix(1,-0.0031,0.0031,1,-0.0189,0.0133)">
	<path class="st11" d="M689.2,871.6h14.9l0,0v33l0,0h-14.9l0,0V871.6L689.2,871.6z"/>
</g>
<g>
	<path class="st11" d="M964.4,869.3h15.1l0,0v32.4l0,0h-14.9l0,0v-32.4H964.4z"/>
</g>
<rect x="566.8" y="472.8" class="st18" width="232.5" height="78"/>
<text transform="matrix(1 0 0 1 566.75 528.914)" class="st19 st20">B1451</text>
<rect x="606.5" y="10.9" class="st18" width="147.5" height="78"/>
<text transform="matrix(1 0 0 1 606.4563 47.5689)" class="st19 st21">B1453</text>
<rect x="609.3" y="967.4" class="st18" width="147.5" height="78"/>
<text transform="matrix(1 0 0 1 609.2563 1004.069)" class="st19 st21">B1447</text>
<rect x="2.2" y="399.1" class="st18" width="78" height="147.5"/>
<text transform="matrix(4.489659e-11 -1 1 4.489659e-11 38.869 546.5752)" class="st19 st21">B1498</text>
</svg>
