<?xml version="1.0" encoding="utf-8"?>
<!-- Generator: Adobe Illustrator 23.0.3, SVG Export Plug-In . SVG Version: 6.00 Build 0)  -->
<svg version="1.1" id="Layer_1" xmlns="http://www.w3.org/2000/svg" xmlns:xlink="http://www.w3.org/1999/xlink" x="0px" y="0px"
	 viewBox="0 0 1024 768" style="enable-background:new 0 0 1024 768;" xml:space="preserve">
<style type="text/css">
	.st0{fill:none;stroke:#000000;stroke-miterlimit:10;}
	.st1{clip-path:url(#SVGID_2_);}
	.st2{fill-opacity:0;stroke:#000000;stroke-miterlimit:10;stroke-opacity:0;}
	.st3{fill:#FFFFFF;stroke:#000000;stroke-miterlimit:10;}
	.st4{opacity:0.5;fill:url(#SVGID_3_);stroke:#000000;stroke-miterlimit:10;stroke-opacity:0;enable-background:new    ;}
	.st5{stroke:#000000;stroke-miterlimit:10;stroke-opacity:0;}
	.st6{fill:#FFFFFF;stroke:#000000;stroke-miterlimit:10;stroke-opacity:0;}
	.st7{fill:url(#SVGID_4_);stroke:#000000;stroke-width:0.3;stroke-miterlimit:10;}
	.st8{fill:#0D748C;stroke:#000000;stroke-width:0.5;stroke-miterlimit:10;}
	.st9{opacity:0.6;stroke:#000000;stroke-miterlimit:10;stroke-opacity:0;enable-background:new    ;}
	.st10{opacity:0.3;stroke:#000000;stroke-miterlimit:10;stroke-opacity:0;enable-background:new    ;}
	.st11{opacity:0.27;stroke:#000000;stroke-miterlimit:10;stroke-opacity:0;enable-background:new    ;}
	.st12{fill:url(#SVGID_5_);stroke:#000000;stroke-width:0.3;stroke-miterlimit:10;}
	.st13{fill:url(#SVGID_6_);stroke:#000000;stroke-width:0.3;stroke-miterlimit:10;}
	.st14{fill:url(#SVGID_7_);stroke:#000000;stroke-width:0.3;stroke-miterlimit:10;}
	.st15{fill:url(#SVGID_8_);stroke:#000000;stroke-width:0.3;stroke-miterlimit:10;}
	.st16{fill:url(#SVGID_9_);stroke:#000000;stroke-width:0.3;stroke-miterlimit:10;}
	.st17{fill:url(#SVGID_10_);stroke:#000000;stroke-width:0.3;stroke-miterlimit:10;}
	.st18{fill:none;}
	.st19{font-family:'Helvetica';}
	.st20{font-size:78px;}
	.st21{font-size:51px;}
	.st22{font-size:45px;}
</style>
<g transform="translate(0,0)">
	<g transform="translate(0.5,0.5) matrix(1,0,0,1,38,15)">
		<g>
			<g transform="translate(0,0) scale(0.15,3.06)">
				<g>
					<path d="M-19.2-5.1h70.3l0,0v250.8l0,0h-70.3l0,0V-5.1L-19.2-5.1z"/>
					<g transform="scale(6.666666666666667,0.32679738562091504)">
						<path class="st0" d="M-2.9-15.5H7.7l0,0v767.4l0,0H-2.9l0,0V-15.5L-2.9-15.5z"/>
					</g>
				</g>
			</g>
		</g>
	</g>
	<g transform="translate(0.5,0.5) matrix(1,0,0,1,45,35)">
		<g>
			<g transform="translate(0,0) scale(5.47,0.15)">
				<g>
					<path d="M0.2,109.9H168l0,0v105l0,0H0.2l0,0V109.9L0.2,109.9z"/>
					<g transform="scale(0.18281535648994515,6.666666666666667)">
						<path class="st0" d="M0.9,16.5h918l0,0v15.8l0,0H0.9l0,0V16.5L0.9,16.5z"/>
					</g>
				</g>
			</g>
		</g>
	</g>
	<g transform="translate(0.5,0.5) matrix(1,0,0,1,45,292)">
		<g>
			<g transform="translate(0,0) scale(5.47,0.15)">
				<g>
					<path d="M0.2,2714.9H168l0,0v105l0,0H0.2l0,0V2714.9L0.2,2714.9z"/>
					<g transform="scale(0.18281535648994515,6.666666666666667)">
						<path class="st0" d="M0.9,407.2h918l0,0V423l0,0H0.9l0,0V407.2L0.9,407.2z"/>
					</g>
				</g>
			</g>
		</g>
	</g>
	<g transform="translate(0.5,0.5) matrix(1,0,0,1,589,15)">
		<g>
			<g transform="translate(0,0) scale(0.16,1.01)">
				<g>
					<path d="M2347.4-15.3h70.3l0,0v250.8l0,0h-70.3l0,0V-15.3L2347.4-15.3z"/>
					<g transform="scale(6.25,0.9900990099009901)">
						<path class="st0" d="M375.6-15.5h11.2l0,0v253.3l0,0h-11.2l0,0V-15.5L375.6-15.5z"/>
					</g>
				</g>
			</g>
		</g>
	</g>
	<g transform="translate(0.5,0.5) matrix(1,0,0,1,589,166)">
		<g>
			<g transform="translate(0,0) scale(0.16,1.54)">
				<g>
					<path d="M2347.4,139h70.3l0,0v250.8l0,0h-70.3l0,0V139L2347.4,139z"/>
					<g transform="scale(6.25,0.6493506493506493)">
						<path class="st0" d="M375.6,214.1h11.2l0,0v386.2l0,0h-11.2l0,0V214.1L375.6,214.1z"/>
					</g>
				</g>
			</g>
		</g>
	</g>
	<g transform="translate(0,0) matrix(1,0,0,1,48,230)">
		<g>
			<g>
				<g>
					<defs>
						<rect id="SVGID_1_" x="2.6" y="310.6" width="212.7" height="146.2"/>
					</defs>
					<clipPath id="SVGID_2_">
						<use xlink:href="#SVGID_1_"  style="overflow:visible;"/>
					</clipPath>
					<g class="st1">
						<g transform="translate(0,0) scale(1.2608695652173916,1.268591426071741)">
							<g>
								<g>
									<path class="st2" d="M2.1,244.9h168.7l0,0v115.2l0,0H2.1l0,0V244.9L2.1,244.9z"/>
								</g>
								<g>
									<path class="st3" d="M6.3,250.6h160.5l0,0v104.9l0,0H6.3l0,0V250.6L6.3,250.6z"/>
								</g>
							</g>
							<g>
								<g>
									<path class="st2" d="M2.1,244.2h168.7l0,0v115.2l0,0H2.1l0,0V244.2L2.1,244.2z"/>
								</g>
								<g>
									
										<linearGradient id="SVGID_3_" gradientUnits="userSpaceOnUse" x1="31.8903" y1="332.6567" x2="164.8571" y2="199.6898" gradientTransform="matrix(1.5898 0 0 1.6093 -30.567 -166.2347)">
										<stop  offset="0" style="stop-color:#FFFFFF"/>
										<stop  offset="0.1742" style="stop-color:#000000"/>
										<stop  offset="0.3708" style="stop-color:#FFFFFF"/>
										<stop  offset="0.4663" style="stop-color:#ADADAD"/>
										<stop  offset="0.7472" style="stop-color:#585858"/>
										<stop  offset="0.8427" style="stop-color:#FFFFFF"/>
										<stop  offset="1" style="stop-color:#191919"/>
									</linearGradient>
									<path class="st4" d="M167,250H5.7v104.6L167,355V250z"/>
								</g>
							</g>
						</g>
					</g>
				</g>
			</g>
		</g>
	</g>
	<g transform="translate(0,0) matrix(-1,1.2246467991473532e-16,-1.2246467991473532e-16,-1,586.6363636363636,66.07499999999995)">
		<g>
			<g transform="translate(0,0) scale(1.319485400693729,1.2940253814344786)">
				<g>
					<g>
						<path class="st5" d="M-281.3-43.7h9.5l0,0v23.2l0,0h-9.5l0,0V-43.7L-281.3-43.7z"/>
					</g>
					<g>
						<path class="st5" d="M-127.4-43.7h9.5l0,0v23.2l0,0h-9.5l0,0V-43.7L-127.4-43.7z"/>
					</g>
					<g>
						<path class="st6" d="M-265.7-26.8h132.5l0,0v7l0,0h-132.5l0,0V-26.8L-265.7-26.8z"/>
					</g>
					<g>
						
							<linearGradient id="SVGID_4_" gradientUnits="userSpaceOnUse" x1="135.0528" y1="-999.2065" x2="135.0528" y2="-1004.3446" gradientTransform="matrix(1.7411 0 0 1.6745 -434.7353 1656.9264)">
							<stop  offset="0" style="stop-color:#FFFFFF"/>
							<stop  offset="1" style="stop-color:#000000"/>
						</linearGradient>
						<path class="st7" d="M-269.4-21.4h139.6l0,0v5.1l0,0h-139.6l0,0V-21.4L-269.4-21.4z"/>
					</g>
				</g>
				<g>
					<g>
						<path class="st8" d="M-280.4-41.2h161.2l0,0V-23l0,0h-161.2l0,0V-41.2L-280.4-41.2z"/>
					</g>
				</g>
				<g>
					<g>
						<path class="st9" d="M-280.4-41.2h161l0,0v4.6l0,0h-161l0,0V-41.2L-280.4-41.2z"/>
					</g>
					<g>
						<path class="st10" d="M-280.4-28h161l0,0v4.6l0,0h-161l0,0V-28L-280.4-28z"/>
					</g>
					<g>
						<path class="st5" d="M-133.4-22.6h4.5l0,0v7.5l0,0h-4.5l0,0V-22.6L-133.4-22.6z"/>
					</g>
					<g>
						<path class="st5" d="M-270-22.6h4.5l0,0v7.5l0,0h-4.5l0,0V-22.6L-270-22.6z"/>
					</g>
					<g transform="matrix(1,-0.0031,0.0031,1,-0.0189,0.0133)">
						<path class="st11" d="M-280.7-42.5h8.4l0,0v19.1l0,0h-8.4l0,0V-42.5L-280.7-42.5z"/>
					</g>
					<g>
						<path class="st11" d="M-127.3-41.7h8.4l0,0v18.8l0,0h-8.4l0,0V-41.7L-127.3-41.7z"/>
					</g>
				</g>
			</g>
		</g>
	</g>
	<g transform="translate(0,0) matrix(-1,1.2246467991473532e-16,-1.2246467991473532e-16,-1,455.6363636363636,66.21250000000006)">
		<g>
			<g transform="translate(0,0) scale(1.3394776037345433,1.3136318266077283)">
				<g>
					<g>
						<path class="st2" d="M-208.3-47h168.7l0,0v35.1l0,0h-168.7l0,0V-47L-208.3-47z"/>
					</g>
					<g>
						<path class="st5" d="M-205.8-43.8h9.5l0,0v23.6l0,0h-9.5l0,0V-43.8L-205.8-43.8z"/>
					</g>
					<g>
						<path class="st5" d="M-51.5-43.8h9.5l0,0v23.6l0,0h-9.5l0,0V-43.8L-51.5-43.8z"/>
					</g>
					<g>
						<path class="st6" d="M-190.2-26.5h132.8l0,0v7.2l0,0h-132.8l0,0V-26.5L-190.2-26.5z"/>
					</g>
					<g>
						
							<linearGradient id="SVGID_5_" gradientUnits="userSpaceOnUse" x1="150.0963" y1="-977.1235" x2="150.0963" y2="-982.3508" gradientTransform="matrix(1.7942 0 0 1.7256 -393.2073 1670.36)">
							<stop  offset="0" style="stop-color:#FFFFFF"/>
							<stop  offset="1" style="stop-color:#000000"/>
						</linearGradient>
						<path class="st12" d="M-193.9-21h140l0,0v5.2l0,0h-140l0,0V-21L-193.9-21z"/>
					</g>
				</g>
				<g>
					<g>
						<path class="st2" d="M-208.3-47.1h168.7l0,0v35.2l0,0h-168.7l0,0V-47.1L-208.3-47.1z"/>
					</g>
					<g>
						<path class="st8" d="M-204.9-41.2h161.6l0,0v18.5l0,0h-161.6l0,0V-41.2L-204.9-41.2z"/>
					</g>
				</g>
				<g>
					<g>
						<path class="st2" d="M-206.9-46.9h165.8l0,0v34.2l0,0h-165.8l0,0V-46.9L-206.9-46.9z"/>
					</g>
					<g>
						<path class="st9" d="M-204.9-41.2h161.4l0,0v4.6l0,0h-161.4l0,0V-41.2L-204.9-41.2z"/>
					</g>
					<g>
						<path class="st10" d="M-204.9-27.7h161.4l0,0v4.6l0,0h-161.4l0,0V-27.7L-204.9-27.7z"/>
					</g>
					<g>
						<path class="st5" d="M-57.6-22.3h4.5l0,0v7.6l0,0h-4.5l0,0V-22.3L-57.6-22.3z"/>
					</g>
					<g>
						<path class="st5" d="M-194.5-22.3h4.5l0,0v7.6l0,0h-4.5l0,0V-22.3L-194.5-22.3z"/>
					</g>
					<g transform="matrix(1,-0.0031,0.0031,1,-0.0189,0.0133)">
						<path class="st11" d="M-205.2-42.2h8.5l0,0v19.4l0,0h-8.5l0,0V-42.2L-205.2-42.2z"/>
					</g>
					<g>
						<path class="st11" d="M-51.4-41.7h8.5l0,0v19.1l0,0h-8.5l0,0V-41.7L-51.4-41.7z"/>
					</g>
				</g>
			</g>
		</g>
	</g>
</g>
<path class="st2" d="M959.8,689.5H737.7"/>
<path class="st2" d="M737.7,644.8h222.1"/>
<g>
	<path class="st5" d="M741,648.9h12.5l0,0v30l0,0H741l0,0V648.9L741,648.9z"/>
</g>
<g>
	<path class="st5" d="M944,648.9h12.5l0,0v30l0,0H944l0,0V648.9L944,648.9z"/>
</g>
<g>
	<path class="st6" d="M761.5,670.9h174.8l0,0v9.1l0,0H761.5l0,0V670.9L761.5,670.9z"/>
</g>
<g>
	
		<linearGradient id="SVGID_6_" gradientUnits="userSpaceOnUse" x1="390.2421" y1="-13.9117" x2="390.2421" y2="-19.0497" gradientTransform="matrix(1.3195 0 0 1.294 333.7756 702.5188)">
		<stop  offset="0" style="stop-color:#FFFFFF"/>
		<stop  offset="1" style="stop-color:#000000"/>
	</linearGradient>
	<path class="st13" d="M756.6,677.8h184.2l0,0v6.6l0,0H756.6l0,0V677.8L756.6,677.8z"/>
</g>
<path class="st2" d="M959.7,689.5h-222"/>
<path class="st2" d="M737.7,644.7h222"/>
<g>
	<path class="st8" d="M742.1,652.1h212.7l0,0v23.6l0,0H742.1l0,0V652.1L742.1,652.1z"/>
</g>
<path class="st2" d="M959.8,689.5H737.7"/>
<path class="st2" d="M737.7,644.5h222.1"/>
<g>
	<path class="st9" d="M742.1,652.1h212.4l0,0v5.9l0,0H742.1l0,0V652.1L742.1,652.1z"/>
</g>
<g>
	<path class="st10" d="M742.1,669.3h212.5l0,0v5.9l0,0H742.1l0,0V669.3L742.1,669.3z"/>
</g>
<g>
	<path class="st5" d="M936,676.2h6l0,0v9.6l0,0h-6l0,0V676.2L936,676.2z"/>
</g>
<g>
	<path class="st5" d="M755.8,676.2h6l0,0v9.6l0,0h-6l0,0V676.2L755.8,676.2z"/>
</g>
<g transform="matrix(1,-0.0031,0.0031,1,-0.0189,0.0133)">
	<path class="st11" d="M739.5,653.9h11.1l0,0v24.7l0,0h-11.1l0,0V653.9L739.5,653.9z"/>
</g>
<g>
	<path class="st11" d="M944.1,651.5h11.1l0,0v24.3l0,0h-11.1l0,0V651.5L944.1,651.5z"/>
</g>
<path class="st2" d="M505.6,689.5H283.5"/>
<path class="st2" d="M283.5,644.8h222.1"/>
<g>
	<path class="st5" d="M286.8,648.9h12.5l0,0v30l0,0h-12.5l0,0V648.9L286.8,648.9z"/>
</g>
<g>
	<path class="st5" d="M489.8,648.9h12.5l0,0v30l0,0h-12.5l0,0V648.9L489.8,648.9z"/>
</g>
<g>
	<path class="st6" d="M307.3,670.9h174.8l0,0v9.1l0,0H307.3l0,0V670.9L307.3,670.9z"/>
</g>
<g>
	
		<linearGradient id="SVGID_7_" gradientUnits="userSpaceOnUse" x1="46.0208" y1="-13.9117" x2="46.0208" y2="-19.0497" gradientTransform="matrix(1.3195 0 0 1.294 333.7756 702.5188)">
		<stop  offset="0" style="stop-color:#FFFFFF"/>
		<stop  offset="1" style="stop-color:#000000"/>
	</linearGradient>
	<path class="st14" d="M302.4,677.8h184.2l0,0v6.6l0,0H302.4l0,0V677.8L302.4,677.8z"/>
</g>
<path class="st2" d="M505.5,689.5h-222"/>
<path class="st2" d="M283.5,644.7h222"/>
<g>
	<path class="st8" d="M287.9,652.1h212.7l0,0v23.6l0,0H287.9l0,0V652.1L287.9,652.1z"/>
</g>
<path class="st2" d="M505.6,689.5H283.5"/>
<path class="st2" d="M283.5,644.5h222.1"/>
<g>
	<path class="st9" d="M287.9,652.1h212.4l0,0v5.9l0,0H287.9l0,0V652.1L287.9,652.1z"/>
</g>
<g>
	<path class="st10" d="M287.9,669.3h212.5l0,0v5.9l0,0H287.9l0,0V669.3L287.9,669.3z"/>
</g>
<g>
	<path class="st5" d="M481.8,676.2h6l0,0v9.6l0,0h-6l0,0V676.2L481.8,676.2z"/>
</g>
<g>
	<path class="st5" d="M301.6,676.2h6l0,0v9.6l0,0h-6l0,0V676.2L301.6,676.2z"/>
</g>
<g transform="matrix(1,-0.0031,0.0031,1,-0.0189,0.0133)">
	<path class="st11" d="M285.3,652.5h11.1l0,0v24.7l0,0h-11.1l0,0V652.5L285.3,652.5z"/>
</g>
<g>
	<path class="st11" d="M489.9,651.5H501l0,0v24.3l0,0h-11.1l0,0V651.5L489.9,651.5z"/>
</g>
<path class="st2" d="M507.5,128h-226l0,0V81.8l0,0h226"/>
<g>
	<path class="st5" d="M504.1,123.7h-12.7l0,0v-31l0,0h12.7l0,0V123.7L504.1,123.7z"/>
</g>
<g>
	<path class="st5" d="M297.5,123.7h-12.7l0,0v-31l0,0h12.7l0,0V123.7L297.5,123.7z"/>
</g>
<g>
	<path class="st6" d="M483.3,101H305.4l0,0v-9.4l0,0h177.9l0,0V101L483.3,101z"/>
</g>
<g>
	
		<linearGradient id="SVGID_8_" gradientUnits="userSpaceOnUse" x1="766.1258" y1="-32.3961" x2="766.1258" y2="-37.6235" gradientTransform="matrix(-1.3395 0 0 -1.3136 1420.6755 44.3445)">
		<stop  offset="0" style="stop-color:#FFFFFF"/>
		<stop  offset="1" style="stop-color:#000000"/>
	</linearGradient>
	<path class="st15" d="M488.2,93.8H300.7l0,0v-6.9l0,0h187.5l0,0V93.8L488.2,93.8z"/>
</g>
<path class="st2" d="M507.5,128H281.6l0,0V81.8l0,0h225.9"/>
<g>
	<path class="st8" d="M503,120.4H286.5l0,0V96l0,0H503l0,0V120.4L503,120.4z"/>
</g>
<path class="st2" d="M505.7,127.8H283.6l0,0v-45l0,0h222.1"/>
<g>
	<path class="st9" d="M503,120.4H286.8l0,0v-6.1l0,0H503l0,0V120.4L503,120.4z"/>
</g>
<g>
	<path class="st10" d="M503,102.7H286.8l0,0v-6.1l0,0H503l0,0V102.7L503,102.7z"/>
</g>
<g>
	<path class="st5" d="M305.7,95.5h-6.1l0,0v-10l0,0h6.1l0,0V95.5L305.7,95.5z"/>
</g>
<g>
	<path class="st5" d="M489.1,95.5H483l0,0v-10l0,0h6.1l0,0V95.5L489.1,95.5z"/>
</g>
<g transform="matrix(1,-0.0031,0.0031,1,-0.0189,0.0133)">
	<path class="st11" d="M503.3,122.4H492l0,0V96.9l0,0h11.3l0,0V122.4L503.3,122.4z"/>
</g>
<g>
	<path class="st11" d="M297.4,121h-11.3l0,0V95.9l0,0h11.3l0,0V121L297.4,121z"/>
</g>
<path class="st2" d="M280.4,128h-226l0,0V81.8l0,0h226"/>
<g>
	<path class="st5" d="M277,123.7h-12.7l0,0v-31l0,0H277l0,0V123.7L277,123.7z"/>
</g>
<g>
	<path class="st5" d="M70.4,123.7H57.7l0,0v-31l0,0h12.7l0,0V123.7L70.4,123.7z"/>
</g>
<g>
	<path class="st6" d="M256.2,101H78.3l0,0v-9.4l0,0h177.9l0,0V101L256.2,101z"/>
</g>
<g>
	
		<linearGradient id="SVGID_9_" gradientUnits="userSpaceOnUse" x1="935.6667" y1="-32.3961" x2="935.6667" y2="-37.6235" gradientTransform="matrix(-1.3395 0 0 -1.3136 1420.6755 44.3445)">
		<stop  offset="0" style="stop-color:#FFFFFF"/>
		<stop  offset="1" style="stop-color:#000000"/>
	</linearGradient>
	<path class="st16" d="M261.1,93.8H73.6l0,0v-6.9l0,0h187.5l0,0V93.8L261.1,93.8z"/>
</g>
<path class="st2" d="M280.4,128H54.5l0,0V81.8l0,0h225.9"/>
<g>
	<path class="st8" d="M275.9,120.4H59.4l0,0V96l0,0h216.5l0,0V120.4L275.9,120.4z"/>
</g>
<path class="st2" d="M278.6,127.8H56.5l0,0v-45l0,0h222.1"/>
<g>
	<path class="st9" d="M275.9,120.4H59.7l0,0v-6.1l0,0h216.2l0,0V120.4L275.9,120.4z"/>
</g>
<g>
	<path class="st10" d="M275.9,102.7H59.6l0,0v-6.1l0,0h216.2l0,0v6.1H275.9z"/>
</g>
<g>
	<path class="st5" d="M78.6,95.5h-6.1l0,0v-10l0,0h6.1l0,0V95.5L78.6,95.5z"/>
</g>
<g>
	<path class="st5" d="M262,95.5h-6.1l0,0v-10l0,0h6.1l0,0V95.5L262,95.5z"/>
</g>
<g transform="matrix(1,-0.0031,0.0031,1,-0.0189,0.0133)">
	<path class="st11" d="M276.2,121.7h-11.3l0,0V96.2l0,0h11.3l0,0V121.7L276.2,121.7z"/>
</g>
<g>
	<path class="st11" d="M70.3,121H59l0,0V95.9l0,0h11.3l0,0V121L70.3,121z"/>
</g>
<path class="st2" d="M732.7,689.5H510.6"/>
<path class="st2" d="M510.6,644.8h222.1"/>
<g>
	<path class="st5" d="M513.9,648.9h12.5l0,0v30l0,0h-12.5l0,0V648.9L513.9,648.9z"/>
</g>
<g>
	<path class="st5" d="M716.9,648.9h12.5l0,0v30l0,0h-12.5l0,0V648.9L716.9,648.9z"/>
</g>
<g>
	<path class="st6" d="M534.4,670.9h174.8l0,0v9.1l0,0H534.4l0,0V670.9L534.4,670.9z"/>
</g>
<g>
	
		<linearGradient id="SVGID_10_" gradientUnits="userSpaceOnUse" x1="218.1314" y1="-13.9117" x2="218.1314" y2="-19.0497" gradientTransform="matrix(1.3195 0 0 1.294 333.7756 702.5188)">
		<stop  offset="0" style="stop-color:#FFFFFF"/>
		<stop  offset="1" style="stop-color:#000000"/>
	</linearGradient>
	<path class="st17" d="M529.5,677.8h184.2l0,0v6.6l0,0H529.5l0,0V677.8L529.5,677.8z"/>
</g>
<path class="st2" d="M732.6,689.5h-222"/>
<path class="st2" d="M510.6,644.7h222"/>
<g>
	<path class="st8" d="M515,652.1h212.7l0,0v23.6l0,0H515l0,0V652.1L515,652.1z"/>
</g>
<path class="st2" d="M732.7,689.5H510.6"/>
<path class="st2" d="M510.6,644.5h222.1"/>
<g>
	<path class="st9" d="M515,652.1h212.4l0,0v5.9l0,0H515l0,0V652.1L515,652.1z"/>
</g>
<g>
	<path class="st10" d="M515,669.3h212.5l0,0v5.9l0,0H515l0,0V669.3L515,669.3z"/>
</g>
<g>
	<path class="st5" d="M708.9,676.2h6l0,0v9.6l0,0h-6l0,0V676.2L708.9,676.2z"/>
</g>
<g>
	<path class="st5" d="M528.7,676.2h6l0,0v9.6l0,0h-6l0,0V676.2L528.7,676.2z"/>
</g>
<g transform="matrix(1,-0.0031,0.0031,1,-0.0189,0.0133)">
	<path class="st11" d="M512.4,653.2h11.1l0,0v24.7l0,0h-11.1l0,0V653.2L512.4,653.2z"/>
</g>
<g>
	<path class="st11" d="M717,651.5h11.1l0,0v24.3l0,0H717l0,0V651.5L717,651.5z"/>
</g>
<rect x="396.8" y="349.5" class="st18" width="232.5" height="78"/>
<text transform="matrix(1 0 0 1 396.8499 405.532)" class="st19 st20">B1451</text>
<rect x="425.5" y="6.4" class="st18" width="147.5" height="78"/>
<text transform="matrix(1 0 0 1 425.5126 43.0689)" class="st19 st21">B1453</text>
<rect x="441.3" y="721" class="st18" width="147.5" height="78"/>
<text transform="matrix(1 0 0 1 441.2567 757.6681)" class="st19 st21">B1447</text>
<rect x="1.9" y="275.7" class="st18" width="78" height="147.5"/>
<text transform="matrix(4.489659e-11 -1 1 4.489659e-11 34.2469 423.1934)" class="st19 st22">B1498</text>
</svg>
