<?xml version="1.0" encoding="utf-8"?>
<!-- Generator: Adobe Illustrator 23.0.3, SVG Export Plug-In . SVG Version: 6.00 Build 0)  -->
<svg version="1.1" id="Layer_1" xmlns="http://www.w3.org/2000/svg" xmlns:xlink="http://www.w3.org/1999/xlink" x="0px" y="0px"
	 viewBox="0 0 1350 1008" style="enable-background:new 0 0 1350 1008;" xml:space="preserve">
<style type="text/css">
	.st0{fill:none;stroke:#000000;stroke-miterlimit:10;}
	.st1{clip-path:url(#SVGID_2_);}
	.st2{fill-opacity:0;stroke:#000000;stroke-miterlimit:10;stroke-opacity:0;}
	.st3{fill:#FFFFFF;stroke:#000000;stroke-miterlimit:10;}
	.st4{opacity:0.5;fill:url(#SVGID_3_);stroke:#000000;stroke-miterlimit:10;stroke-opacity:0;enable-background:new    ;}
	.st5{stroke:#000000;stroke-miterlimit:10;stroke-opacity:0;}
	.st6{fill:#FFFFFF;stroke:#000000;stroke-miterlimit:10;stroke-opacity:0;}
	.st7{fill:url(#SVGID_4_);stroke:#000000;stroke-width:0.3;stroke-miterlimit:10;}
	.st8{fill:#0D748C;stroke:#000000;stroke-width:0.5;stroke-miterlimit:10;}
	.st9{opacity:0.6;stroke:#000000;stroke-miterlimit:10;stroke-opacity:0;enable-background:new    ;}
	.st10{opacity:0.3;stroke:#000000;stroke-miterlimit:10;stroke-opacity:0;enable-background:new    ;}
	.st11{opacity:0.27;stroke:#000000;stroke-miterlimit:10;stroke-opacity:0;enable-background:new    ;}
	.st12{fill:url(#SVGID_5_);stroke:#000000;stroke-width:0.3;stroke-miterlimit:10;}
	.st13{fill:url(#SVGID_6_);stroke:#000000;stroke-width:0.3;stroke-miterlimit:10;}
	.st14{fill:url(#SVGID_7_);stroke:#000000;stroke-width:0.3;stroke-miterlimit:10;}
	.st15{fill:url(#SVGID_8_);stroke:#000000;stroke-width:0.3;stroke-miterlimit:10;}
	.st16{fill:url(#SVGID_9_);stroke:#000000;stroke-width:0.3;stroke-miterlimit:10;}
	.st17{fill:url(#SVGID_10_);stroke:#000000;stroke-width:0.3;stroke-miterlimit:10;}
</style>
<g transform="translate(0,0)">
	<g transform="translate(0.5,0.5) matrix(1,0,0,1,17,15)">
		<g>
			<g transform="translate(0,0) scale(0.15,3.06)">
				<g>
					<path d="M-116.7-5.1h95l0,0v329.4l0,0h-95l0,0V-5.1L-116.7-5.1z"/>
					<g transform="scale(6.666666666666667,0.32679738562091504)">
						<path class="st0" d="M-17.5-15.5h14.3l0,0v1008l0,0h-14.3l0,0V-15.5L-17.5-15.5z"/>
					</g>
				</g>
			</g>
		</g>
	</g>
	<g transform="translate(0.5,0.5) matrix(1,0,0,1,38,15)">
		<g>
			<g transform="translate(0,0) scale(0.15,3.06)">
				<g>
					<path d="M62.7-5.1h95l0,0v329.4l0,0h-95l0,0V-5.1L62.7-5.1z"/>
					<g transform="scale(6.666666666666667,0.32679738562091504)">
						<path class="st0" d="M9.4-15.5h14.3l0,0v1008l0,0H9.4l0,0V-15.5L9.4-15.5z"/>
					</g>
				</g>
			</g>
		</g>
	</g>
	<g transform="translate(0.5,0.5) matrix(1,0,0,1,45,35)">
		<g>
			<g transform="translate(0,0) scale(5.47,0.15)">
				<g>
					<path d="M3.1,218.6h227l0,0v137.9l0,0H3.1l0,0V218.6L3.1,218.6z"/>
					<g transform="scale(0.18281535648994515,6.666666666666667)">
						<path class="st0" d="M16.9,32.8h1241.4l0,0v20.7l0,0H16.9l0,0V32.8L16.9,32.8z"/>
					</g>
				</g>
			</g>
		</g>
	</g>
	<g transform="translate(0.5,0.5) matrix(1,0,0,1,45,292)">
		<g>
			<g transform="translate(0,0) scale(5.47,0.15)">
				<g>
					<path d="M3.1,4177.5h227l0,0v137.9l0,0H3.1l0,0V4177.5L3.1,4177.5z"/>
					<g transform="scale(0.18281535648994515,6.666666666666667)">
						<path class="st0" d="M16.9,626.6h1241.4l0,0v20.7l0,0H16.9l0,0V626.6L16.9,626.6z"/>
					</g>
				</g>
			</g>
		</g>
	</g>
	<g transform="translate(0.5,0.5) matrix(1,0,0,1,589,15)">
		<g>
			<g transform="translate(0,0) scale(0.16,1.01)">
				<g>
					<path d="M4470.6-15.3h95l0,0v329.4l0,0h-95l0,0V-15.3L4470.6-15.3z"/>
					<g transform="scale(6.25,0.9900990099009901)">
						<path class="st0" d="M715.3-15.5h15.2l0,0v332.7l0,0h-15.2l0,0V-15.5L715.3-15.5z"/>
					</g>
				</g>
			</g>
		</g>
	</g>
	<g transform="translate(0.5,0.5) matrix(1,0,0,1,589,166)">
		<g>
			<g transform="translate(0,0) scale(0.16,1.54)">
				<g>
					<path d="M4470.6,216.5h95l0,0v329.4l0,0h-95l0,0V216.5L4470.6,216.5z"/>
					<g transform="scale(6.25,0.6493506493506493)">
						<path class="st0" d="M715.3,333.4h15.2l0,0v507.3l0,0h-15.2l0,0V333.4L715.3,333.4z"/>
					</g>
				</g>
			</g>
		</g>
	</g>
	<g transform="translate(0,0) matrix(1,0,0,1,48,230)">
		<g>
			<g>
				<defs>
					<rect id="SVGID_1_" x="20.1" y="480.1" width="287.6" height="192"/>
				</defs>
				<clipPath id="SVGID_2_">
					<use xlink:href="#SVGID_1_"  style="overflow:visible;"/>
				</clipPath>
				<g class="st1">
					<g transform="translate(0,0) scale(1.2608695652173916,1.268591426071741)">
						<g>
							<g>
								<path class="st2" d="M16,378.5h228.1l0,0v151.4l0,0H16l0,0V378.5L16,378.5z"/>
							</g>
							<g>
								<path class="st3" d="M21.7,386.1h217l0,0v137.7l0,0h-217l0,0V386.1L21.7,386.1z"/>
							</g>
						</g>
						<g>
							<g>
								<path class="st2" d="M16,377.6h228.1l0,0v151.4l0,0H16l0,0V377.6L16,377.6z"/>
							</g>
							<g>
								
									<linearGradient id="SVGID_3_" gradientUnits="userSpaceOnUse" x1="55.2827" y1="167.9789" x2="233.0632" y2="345.7594" gradientTransform="matrix(1.2609 0 0 -1.2686 -28.4483 756.0282)">
									<stop  offset="0" style="stop-color:#FFFFFF"/>
									<stop  offset="0.1742" style="stop-color:#000000"/>
									<stop  offset="0.3708" style="stop-color:#FFFFFF"/>
									<stop  offset="0.4663" style="stop-color:#ADADAD"/>
									<stop  offset="0.7472" style="stop-color:#585858"/>
									<stop  offset="0.8427" style="stop-color:#FFFFFF"/>
									<stop  offset="1" style="stop-color:#191919"/>
								</linearGradient>
								<path class="st4" d="M239.1,385.2H21v137.5l218.1,0.5V385.2z"/>
							</g>
						</g>
					</g>
				</g>
			</g>
		</g>
	</g>
	<g transform="translate(0,0) matrix(-1,1.2246467991473532e-16,-1.2246467991473532e-16,-1,586.6363636363636,66.07499999999995)">
		<g>
			<g transform="translate(0,0) scale(1.319485400693729,1.2940253814344786)">
				<g>
					<g>
						<path class="st2" d="M-538.2-78.1H-310l0,0v46.2l0,0h-228.2l0,0V-78.1L-538.2-78.1z"/>
					</g>
					<g>
						<path class="st5" d="M-534.8-73.8h12.9l0,0v31c0,0,0,0,0,0h-12.9c0,0,0,0,0,0V-73.8L-534.8-73.8z"/>
					</g>
					<g>
						<path class="st5" d="M-326.2-73.8h12.9c0,0,0,0,0,0v31c0,0,0,0,0,0h-12.9c0,0,0,0,0,0V-73.8L-326.2-73.8z"/>
					</g>
					<g>
						<path class="st6" d="M-513.7-51.1h179.6l0,0v9.4l0,0h-179.6l0,0V-51.1L-513.7-51.1z"/>
					</g>
					<g>
						
							<linearGradient id="SVGID_4_" gradientUnits="userSpaceOnUse" x1="273.7001" y1="-608.6398" x2="273.7001" y2="-615.5062" gradientTransform="matrix(-1.3195 0 0 1.294 -62.8971 750.5784)">
							<stop  offset="0" style="stop-color:#FFFFFF"/>
							<stop  offset="1" style="stop-color:#000000"/>
						</linearGradient>
						<path class="st7" d="M-518.7-43.9h189.3l0,0v6.9l0,0h-189.3l0,0V-43.9L-518.7-43.9z"/>
					</g>
				</g>
				<g>
					<g>
						<path class="st2" d="M-538.2-78.1h228.1l0,0v46.2l0,0h-228.1l0,0V-78.1L-538.2-78.1z"/>
					</g>
					<g>
						<path class="st8" d="M-533.6-70.5h218.5c0,0,0,0,0,0v24.4c0,0,0,0,0,0h-218.5l0,0V-70.5L-533.6-70.5z"/>
					</g>
				</g>
				<g>
					<g>
						<path class="st2" d="M-538.2-78.3H-310l0,0v46.4l0,0h-228.2l0,0V-78.3L-538.2-78.3z"/>
					</g>
					<g>
						<path class="st9" d="M-533.6-70.5h218.2c0,0,0,0,0,0v6.1c0,0,0,0,0,0h-218.2l0,0V-70.5L-533.6-70.5z"/>
					</g>
					<g>
						<path class="st10" d="M-533.6-52.7h218.3l0,0v6.1l0,0h-218.3l0,0V-52.7L-533.6-52.7z"/>
					</g>
					<g>
						<path class="st5" d="M-334.4-45.5h6.1c0,0,0,0,0,0v10c0,0,0,0,0,0h-6.1c0,0,0,0,0,0V-45.5L-334.4-45.5z"/>
					</g>
					<g>
						<path class="st5" d="M-519.6-45.5h6.1c0,0,0,0,0,0v10c0,0,0,0,0,0h-6.1c0,0,0,0,0,0V-45.5L-519.6-45.5z"/>
					</g>
					<g transform="matrix(1,-0.0031,0.0031,1,-0.0189,0.0133)">
						<path class="st11" d="M-534-72.6l11.4,0l0,0l0,25.5l0,0l-11.4,0l0,0L-534-72.6L-534-72.6z"/>
					</g>
					<g>
						<path class="st11" d="M-326.1-71.1h11.4c0,0,0,0,0,0V-46c0,0,0,0,0,0h-11.4l0,0V-71.1L-326.1-71.1z"/>
					</g>
				</g>
			</g>
		</g>
	</g>
	<g transform="translate(0,0) matrix(-1,1.2246467991473532e-16,-1.2246467991473532e-16,-1,455.6363636363636,66.21250000000006)">
		<g>
			<g transform="translate(0,0) scale(1.3394776037345433,1.3136318266077283)">
				<g>
					<g>
						<path class="st2" d="M-404.9-77.1h228.2l0,0V-31l0,0h-228.2l0,0V-77.1L-404.9-77.1z"/>
					</g>
					<g>
						<path class="st5" d="M-401.5-72.9h12.9l0,0v31c0,0,0,0,0,0h-12.9c0,0,0,0,0,0V-72.9L-401.5-72.9z"/>
					</g>
					<g>
						<path class="st5" d="M-192.9-72.9h12.9c0,0,0,0,0,0v31c0,0,0,0,0,0h-12.9c0,0,0,0,0,0V-72.9L-192.9-72.9z"/>
					</g>
					<g>
						<path class="st6" d="M-380.4-50.2h179.6l0,0v9.4l0,0h-179.6l0,0V-50.2L-380.4-50.2z"/>
					</g>
					<g>
						
							<linearGradient id="SVGID_5_" gradientUnits="userSpaceOnUse" x1="75.4129" y1="-599.6975" x2="75.4129" y2="-606.5638" gradientTransform="matrix(-1.3395 0 0 1.3136 -189.7174 751.6919)">
							<stop  offset="0" style="stop-color:#FFFFFF"/>
							<stop  offset="1" style="stop-color:#000000"/>
						</linearGradient>
						<path class="st12" d="M-385.4-43h189.3l0,0v6.9l0,0h-189.3l0,0V-43L-385.4-43z"/>
					</g>
				</g>
				<g>
					<g>
						<path class="st2" d="M-404.9-77.2h228.1l0,0V-31l0,0h-228.1l0,0V-77.2L-404.9-77.2z"/>
					</g>
					<g>
						<path class="st8" d="M-400.3-69.5h218.5c0,0,0,0,0,0v24.4c0,0,0,0,0,0h-218.5l0,0V-69.5L-400.3-69.5z"/>
					</g>
				</g>
				<g>
					<g>
						<path class="st2" d="M-404.9-77.4h228.2l0,0V-31l0,0h-228.2l0,0V-77.4L-404.9-77.4z"/>
					</g>
					<g>
						<path class="st9" d="M-400.3-69.5h218.2c0,0,0,0,0,0v6.1c0,0,0,0,0,0h-218.2l0,0V-69.5L-400.3-69.5z"/>
					</g>
					<g>
						<path class="st10" d="M-400.3-51.8H-182l0,0v6.1l0,0h-218.3l0,0V-51.8L-400.3-51.8z"/>
					</g>
					<g>
						<path class="st5" d="M-201.1-44.6h6.1c0,0,0,0,0,0v10c0,0,0,0,0,0h-6.1c0,0,0,0,0,0V-44.6L-201.1-44.6z"/>
					</g>
					<g>
						<path class="st5" d="M-386.2-44.6h6.1c0,0,0,0,0,0v10c0,0,0,0,0,0h-6.1c0,0,0,0,0,0V-44.6L-386.2-44.6z"/>
					</g>
					<g transform="matrix(1,-0.0031,0.0031,1,-0.0189,0.0133)">
						<path class="st11" d="M-400.7-71.3l11.4,0l0,0l0,25.5l0,0l-11.4,0l0,0L-400.7-71.3L-400.7-71.3z"/>
					</g>
					<g>
						<path class="st11" d="M-192.8-70.1h11.4c0,0,0,0,0,0v25.1c0,0,0,0,0,0h-11.4l0,0V-70.1L-192.8-70.1z"/>
					</g>
				</g>
			</g>
		</g>
	</g>
	<g transform="translate(0,0) matrix(-1,1.2246467991473532e-16,-1.2246467991473532e-16,-1,321.6363636363636,66.41875000000012)">
		<g>
			<g transform="translate(0,0) scale(1.3694659082957645,1.3430414943676032)">
				<g>
					<g>
						<path class="st2" d="M-270.7-75.8h228.2l0,0v46.2l0,0h-228.2l0,0V-75.8L-270.7-75.8z"/>
					</g>
					<g>
						<path class="st5" d="M-267.2-71.5h12.9l0,0v31c0,0,0,0,0,0h-12.9c0,0,0,0,0,0V-71.5L-267.2-71.5z"/>
					</g>
					<g>
						<path class="st5" d="M-58.7-71.5h12.9c0,0,0,0,0,0v31c0,0,0,0,0,0h-12.9c0,0,0,0,0,0V-71.5L-58.7-71.5z"/>
					</g>
					<g>
						<path class="st6" d="M-246.2-48.8h179.6l0,0v9.4l0,0h-179.6l0,0V-48.8L-246.2-48.8z"/>
					</g>
					<g>
						
							<linearGradient id="SVGID_6_" gradientUnits="userSpaceOnUse" x1="-117.6739" y1="-586.7606" x2="-117.6739" y2="-593.627" gradientTransform="matrix(-1.3695 0 0 1.343 -317.6768 753.2942)">
							<stop  offset="0" style="stop-color:#FFFFFF"/>
							<stop  offset="1" style="stop-color:#000000"/>
						</linearGradient>
						<path class="st13" d="M-251.2-41.6h189.3l0,0v6.9l0,0h-189.3l0,0V-41.6L-251.2-41.6z"/>
					</g>
				</g>
				<g>
					<g>
						<path class="st2" d="M-270.7-75.8h228.1l0,0v46.2l0,0h-228.1l0,0V-75.8L-270.7-75.8z"/>
					</g>
					<g>
						<path class="st8" d="M-266.1-68.2h218.5c0,0,0,0,0,0v24.4c0,0,0,0,0,0h-218.5l0,0V-68.2L-266.1-68.2z"/>
					</g>
				</g>
				<g>
					<g>
						<path class="st2" d="M-270.7-76.1h228.2l0,0v46.4l0,0h-228.2l0,0V-76.1L-270.7-76.1z"/>
					</g>
					<g>
						<path class="st9" d="M-266.1-68.2h218.2c0,0,0,0,0,0v6.1c0,0,0,0,0,0h-218.2l0,0V-68.2L-266.1-68.2z"/>
					</g>
					<g>
						<path class="st10" d="M-266.1-50.5h218.3l0,0v6.1l0,0h-218.3l0,0V-50.5L-266.1-50.5z"/>
					</g>
					<g>
						<path class="st5" d="M-66.9-43.3h6.1c0,0,0,0,0,0v10c0,0,0,0,0,0h-6.1c0,0,0,0,0,0V-43.3L-66.9-43.3z"/>
					</g>
					<g>
						<path class="st5" d="M-252-43.3h6.1c0,0,0,0,0,0v10c0,0,0,0,0,0h-6.1c0,0,0,0,0,0V-43.3L-252-43.3z"/>
					</g>
					<g transform="matrix(1,-0.0031,0.0031,1,-0.0189,0.0133)">
						<path class="st11" d="M-266.5-69.5l11.4,0l0,0l0,25.5l0,0l-11.4,0l0,0L-266.5-69.5L-266.5-69.5z"/>
					</g>
					<g>
						<path class="st11" d="M-58.6-68.8h11.4c0,0,0,0,0,0v25.1c0,0,0,0,0,0h-11.4l0,0V-68.8L-58.6-68.8z"/>
					</g>
				</g>
			</g>
		</g>
	</g>
	<g transform="translate(0,0) matrix(-1,1.2246467991473532e-16,-1.2246467991473532e-16,-1,183.6363636363636,66.21250000000012)">
		<g>
			<g transform="translate(0,0) scale(1.3394776037345433,1.3136318266077283)">
				<g>
					<g>
						<path class="st2" d="M-144.7-77.1H83.4l0,0V-31l0,0h-228.2l0,0V-77.1L-144.7-77.1z"/>
					</g>
					<g>
						<path class="st5" d="M-141.3-72.9h12.9l0,0v31c0,0,0,0,0,0h-12.9c0,0,0,0,0,0V-72.9L-141.3-72.9z"/>
					</g>
					<g>
						<path class="st5" d="M67.2-72.9h12.9c0,0,0,0,0,0v31c0,0,0,0,0,0H67.2c0,0,0,0,0,0V-72.9L67.2-72.9z"/>
					</g>
					<g>
						<path class="st6" d="M-120.3-50.2H59.3l0,0v9.4l0,0h-179.6l0,0V-50.2L-120.3-50.2z"/>
					</g>
					<g>
						
							<linearGradient id="SVGID_7_" gradientUnits="userSpaceOnUse" x1="-321.8434" y1="-599.6975" x2="-321.8434" y2="-606.5638" gradientTransform="matrix(-1.3395 0 0 1.3136 -461.7173 751.6919)">
							<stop  offset="0" style="stop-color:#FFFFFF"/>
							<stop  offset="1" style="stop-color:#000000"/>
						</linearGradient>
						<path class="st14" d="M-125.3-43H64l0,0v6.9l0,0h-189.3l0,0V-43L-125.3-43z"/>
					</g>
				</g>
				<g>
					<g>
						<path class="st2" d="M-144.7-77.2H83.3l0,0V-31l0,0h-228.1l0,0V-77.2L-144.7-77.2z"/>
					</g>
					<g>
						<path class="st8" d="M-140.2-69.5H78.4c0,0,0,0,0,0v24.4c0,0,0,0,0,0h-218.5l0,0V-69.5L-140.2-69.5z"/>
					</g>
				</g>
				<g>
					<g>
						<path class="st2" d="M-144.7-77.4H83.4l0,0V-31l0,0h-228.2l0,0V-77.4L-144.7-77.4z"/>
					</g>
					<g>
						<path class="st9" d="M-140.2-69.5H78.1c0,0,0,0,0,0v6.1c0,0,0,0,0,0h-218.2l0,0V-69.5L-140.2-69.5z"/>
					</g>
					<g>
						<path class="st10" d="M-140.2-51.8H78.1l0,0v6.1l0,0h-218.3l0,0V-51.8L-140.2-51.8z"/>
					</g>
					<g>
						<path class="st5" d="M59-44.6h6.1c0,0,0,0,0,0v10c0,0,0,0,0,0H59c0,0,0,0,0,0V-44.6L59-44.6z"/>
					</g>
					<g>
						<path class="st5" d="M-126.1-44.6h6.1c0,0,0,0,0,0v10c0,0,0,0,0,0h-6.1c0,0,0,0,0,0V-44.6L-126.1-44.6z"/>
					</g>
					<g transform="matrix(1,-0.0031,0.0031,1,-0.0189,0.0133)">
						<path class="st11" d="M-140.6-70.5l11.4,0l0,0l0,25.5l0,0l-11.4,0l0,0L-140.6-70.5L-140.6-70.5z"/>
					</g>
					<g>
						<path class="st11" d="M67.3-70.1h11.4c0,0,0,0,0,0v25.1c0,0,0,0,0,0H67.3l0,0V-70.1L67.3-70.1z"/>
					</g>
				</g>
			</g>
		</g>
	</g>
	<g transform="translate(0,0) matrix(1,0,0,1,179.63636363636363,271.78750000000014)">
		<g>
			<g transform="translate(0,0) scale(1.3394776037345433,1.3136318266077283)">
				<g>
					<g>
						<path class="st2" d="M140.9,439.3h228.2l0,0v46.2l0,0H140.9l0,0V439.3L140.9,439.3z"/>
					</g>
					<g>
						<path class="st5" d="M144.3,443.6h12.9l0,0v31c0,0,0,0,0,0h-12.9c0,0,0,0,0,0V443.6L144.3,443.6z"/>
					</g>
					<g>
						<path class="st5" d="M352.9,443.6h12.9c0,0,0,0,0,0v31c0,0,0,0,0,0h-12.9c0,0,0,0,0,0V443.6L352.9,443.6z"/>
					</g>
					<g>
						<path class="st6" d="M165.4,466.3H345l0,0v9.4l0,0H165.4l0,0V466.3L165.4,466.3z"/>
					</g>
					<g>
						
							<linearGradient id="SVGID_8_" gradientUnits="userSpaceOnUse" x1="126.2182" y1="175.837" x2="126.2182" y2="182.7033" gradientTransform="matrix(1.3395 0 0 -1.3136 85.9901 711.3078)">
							<stop  offset="0" style="stop-color:#FFFFFF"/>
							<stop  offset="1" style="stop-color:#000000"/>
						</linearGradient>
						<path class="st15" d="M160.4,473.5h189.3l0,0v6.9l0,0H160.4l0,0V473.5L160.4,473.5z"/>
					</g>
				</g>
				<g>
					<g>
						<path class="st2" d="M140.9,439.2H369l0,0v46.2l0,0H140.9l0,0V439.2L140.9,439.2z"/>
					</g>
					<g>
						<path class="st8" d="M145.5,446.9H364c0,0,0,0,0,0v24.4c0,0,0,0,0,0H145.5l0,0V446.9L145.5,446.9z"/>
					</g>
				</g>
				<g>
					<g>
						<path class="st2" d="M140.9,439h228.2l0,0v46.4l0,0H140.9l0,0V439L140.9,439z"/>
					</g>
					<g>
						<path class="st9" d="M145.5,446.9h218.2c0,0,0,0,0,0v6.1c0,0,0,0,0,0H145.5l0,0V446.9L145.5,446.9z"/>
					</g>
					<g>
						<path class="st10" d="M145.5,464.6h218.3l0,0v6.1l0,0H145.5l0,0V464.6L145.5,464.6z"/>
					</g>
					<g>
						<path class="st5" d="M344.7,471.8h6.1c0,0,0,0,0,0v10c0,0,0,0,0,0h-6.1c0,0,0,0,0,0V471.8L344.7,471.8z"/>
					</g>
					<g>
						<path class="st5" d="M159.5,471.8h6.1c0,0,0,0,0,0v10c0,0,0,0,0,0h-6.1c0,0,0,0,0,0V471.8L159.5,471.8z"/>
					</g>
					<g transform="matrix(1,-0.0031,0.0031,1,-0.0189,0.0133)">
						<path class="st11" d="M143.5,446.8l11.4,0l0,0l0,25.5l0,0l-11.4,0l0,0L143.5,446.8L143.5,446.8z"/>
					</g>
					<g>
						<path class="st11" d="M353,446.3h11.4c0,0,0,0,0,0v25.1c0,0,0,0,0,0H353l0,0V446.3L353,446.3z"/>
					</g>
				</g>
			</g>
		</g>
	</g>
	<g transform="translate(0,0) matrix(1,0,0,1,314.6363636363636,271.78750000000014)">
		<g>
			<g transform="translate(0,0) scale(1.3394776037345433,1.3136318266077283)">
				<g>
					<g>
						<path class="st2" d="M270,439.3h228.2l0,0v46.2l0,0H270l0,0V439.3L270,439.3z"/>
					</g>
					<g>
						<path class="st5" d="M273.4,443.6h12.9l0,0v31c0,0,0,0,0,0h-12.9c0,0,0,0,0,0V443.6L273.4,443.6z"/>
					</g>
					<g>
						<path class="st5" d="M482,443.6h12.9c0,0,0,0,0,0v31c0,0,0,0,0,0H482c0,0,0,0,0,0V443.6L482,443.6z"/>
					</g>
					<g>
						<path class="st6" d="M294.5,466.3h179.6l0,0v9.4l0,0H294.5l0,0V466.3L294.5,466.3z"/>
					</g>
					<g>
						
							<linearGradient id="SVGID_9_" gradientUnits="userSpaceOnUse" x1="121.8147" y1="175.837" x2="121.8147" y2="182.7033" gradientTransform="matrix(1.3395 0 0 -1.3136 220.9901 711.3078)">
							<stop  offset="0" style="stop-color:#FFFFFF"/>
							<stop  offset="1" style="stop-color:#000000"/>
						</linearGradient>
						<path class="st16" d="M289.5,473.5h189.3l0,0v6.9l0,0H289.5l0,0V473.5L289.5,473.5z"/>
					</g>
				</g>
				<g>
					<g>
						<path class="st2" d="M270,439.2h228.1l0,0v46.2l0,0H270l0,0V439.2L270,439.2z"/>
					</g>
					<g>
						<path class="st8" d="M274.6,446.9h218.5c0,0,0,0,0,0v24.4c0,0,0,0,0,0H274.6l0,0V446.9L274.6,446.9z"/>
					</g>
				</g>
				<g>
					<g>
						<path class="st2" d="M270,439h228.2l0,0v46.4l0,0H270l0,0V439L270,439z"/>
					</g>
					<g>
						<path class="st9" d="M274.6,446.9h218.2c0,0,0,0,0,0v6.1c0,0,0,0,0,0H274.6l0,0V446.9L274.6,446.9z"/>
					</g>
					<g>
						<path class="st10" d="M274.6,464.6h218.3l0,0v6.1l0,0H274.6l0,0V464.6L274.6,464.6z"/>
					</g>
					<g>
						<path class="st5" d="M473.8,471.8h6.1c0,0,0,0,0,0v10c0,0,0,0,0,0h-6.1c0,0,0,0,0,0V471.8L473.8,471.8z"/>
					</g>
					<g>
						<path class="st5" d="M288.6,471.8h6.1c0,0,0,0,0,0v10c0,0,0,0,0,0h-6.1c0,0,0,0,0,0V471.8L288.6,471.8z"/>
					</g>
					<g transform="matrix(1,-0.0031,0.0031,1,-0.0189,0.0133)">
						<path class="st11" d="M272.6,447.2l11.4,0l0,0l0,25.5l0,0l-11.4,0l0,0L272.6,447.2L272.6,447.2z"/>
					</g>
					<g>
						<path class="st11" d="M482.1,446.3h11.4c0,0,0,0,0,0v25.1c0,0,0,0,0,0h-11.4l0,0V446.3L482.1,446.3z"/>
					</g>
				</g>
			</g>
		</g>
	</g>
	<g transform="translate(0,0) matrix(1,0,0,1,450.6363636363636,271.78750000000014)">
		<g>
			<g transform="translate(0,0) scale(1.3394776037345433,1.3136318266077283)">
				<g>
					<g>
						<path class="st2" d="M400.1,439.3h228.2l0,0v46.2l0,0H400.1l0,0V439.3L400.1,439.3z"/>
					</g>
					<g>
						<path class="st5" d="M403.5,443.6h12.9l0,0v31c0,0,0,0,0,0h-12.9c0,0,0,0,0,0V443.6L403.5,443.6z"/>
					</g>
					<g>
						<path class="st5" d="M612.1,443.6h12.9c0,0,0,0,0,0v31c0,0,0,0,0,0h-12.9c0,0,0,0,0,0V443.6L612.1,443.6z"/>
					</g>
					<g>
						<path class="st6" d="M424.6,466.3h179.6l0,0v9.4l0,0H424.6l0,0V466.3L424.6,466.3z"/>
					</g>
					<g>
						
							<linearGradient id="SVGID_10_" gradientUnits="userSpaceOnUse" x1="117.3787" y1="175.837" x2="117.3787" y2="182.7033" gradientTransform="matrix(1.3395 0 0 -1.3136 356.9901 711.3078)">
							<stop  offset="0" style="stop-color:#FFFFFF"/>
							<stop  offset="1" style="stop-color:#000000"/>
						</linearGradient>
						<path class="st17" d="M419.6,473.5h189.3l0,0v6.9l0,0H419.6l0,0V473.5L419.6,473.5z"/>
					</g>
				</g>
				<g>
					<g>
						<path class="st2" d="M400.1,439.2h228.1l0,0v46.2l0,0H400.1l0,0V439.2L400.1,439.2z"/>
					</g>
					<g>
						<path class="st8" d="M404.7,446.9h218.5c0,0,0,0,0,0v24.4c0,0,0,0,0,0H404.7l0,0V446.9L404.7,446.9z"/>
					</g>
				</g>
				<g>
					<g>
						<path class="st2" d="M400.1,439h228.2l0,0v46.4l0,0H400.1l0,0V439L400.1,439z"/>
					</g>
					<g>
						<path class="st9" d="M404.7,446.9h218.2c0,0,0,0,0,0v6.1c0,0,0,0,0,0H404.7l0,0V446.9L404.7,446.9z"/>
					</g>
					<g>
						<path class="st10" d="M404.7,464.6H623l0,0v6.1l0,0H404.7l0,0V464.6L404.7,464.6z"/>
					</g>
					<g>
						<path class="st5" d="M603.9,471.8h6.1c0,0,0,0,0,0v10c0,0,0,0,0,0h-6.1c0,0,0,0,0,0V471.8L603.9,471.8z"/>
					</g>
					<g>
						<path class="st5" d="M418.7,471.8h6.1c0,0,0,0,0,0v10c0,0,0,0,0,0h-6.1c0,0,0,0,0,0V471.8L418.7,471.8z"/>
					</g>
					<g transform="matrix(1,-0.0031,0.0031,1,-0.0189,0.0133)">
						<path class="st11" d="M402.7,447.6l11.4,0l0,0l0,25.5l0,0l-11.4,0l0,0L402.7,447.6L402.7,447.6z"/>
					</g>
					<g>
						<path class="st11" d="M612.2,446.3h11.4c0,0,0,0,0,0v25.1c0,0,0,0,0,0h-11.4l0,0V446.3L612.2,446.3z"/>
					</g>
				</g>
			</g>
		</g>
	</g>
</g>
</svg>
